<svg width="90" height="90" viewBox="0 0 90 90" fill="none" xmlns="http://www.w3.org/2000/svg">
<rect width="90" height="90" rx="30" fill="#F4788C" fill-opacity="0.2784"/>
<path fill-rule="evenodd" clip-rule="evenodd" d="M38.9246 68.9764C29.9606 68.0014 23 60.7934 23 52.0444C23 42.6308 31.0586 35 41 35C50.9414 35 59 42.6308 59 52.0444C59 60.8343 53.0906 60.1116 48.0452 59.4929C45.1328 59.1366 42.5102 58.8162 41.4716 60.3758C40.7606 61.4427 41.5292 62.7722 42.4706 63.6636C42.7502 63.9284 42.9721 64.2428 43.1234 64.5887C43.2747 64.9347 43.3526 65.3055 43.3526 65.68C43.3526 66.0545 43.2747 66.4253 43.1234 66.7712C42.9721 67.1172 42.7502 67.4316 42.4706 67.6964C41.5292 68.5878 40.2476 69.1213 38.9246 68.9764ZM39.353 43.5222C39.353 44.2003 39.0685 44.8506 38.5622 45.3301C38.0558 45.8095 37.3691 46.0789 36.653 46.0789C35.9369 46.0789 35.2502 45.8095 34.7438 45.3301C34.2375 44.8506 33.953 44.2003 33.953 43.5222C33.953 42.8442 34.2375 42.1939 34.7438 41.7144C35.2502 41.2349 35.9369 40.9656 36.653 40.9656C37.3691 40.9656 38.0558 41.2349 38.5622 41.7144C39.0685 42.1939 39.353 42.8442 39.353 43.5222ZM31.1 53.7489C31.8161 53.7489 32.5028 53.4795 33.0092 53.0001C33.5155 52.5206 33.8 51.8703 33.8 51.1922C33.8 50.5141 33.5155 49.8639 33.0092 49.3844C32.5028 48.9049 31.8161 48.6356 31.1 48.6356C30.3839 48.6356 29.6972 48.9049 29.1908 49.3844C28.6845 49.8639 28.4 50.5141 28.4 51.1922C28.4 51.8703 28.6845 52.5206 29.1908 53.0001C29.6972 53.4795 30.3839 53.7489 31.1 53.7489ZM50.9 53.7489C51.6161 53.7489 52.3028 53.4795 52.8092 53.0001C53.3155 52.5206 53.6 51.8703 53.6 51.1922C53.6 50.5141 53.3155 49.8639 52.8092 49.3844C52.3028 48.9049 51.6161 48.6356 50.9 48.6356C50.1839 48.6356 49.4972 48.9049 48.9908 49.3844C48.4845 49.8639 48.2 50.5141 48.2 51.1922C48.2 51.8703 48.4845 52.5206 48.9908 53.0001C49.4972 53.4795 50.1839 53.7489 50.9 53.7489ZM45.5 46.0789C45.8546 46.0789 46.2057 46.0128 46.5332 45.8843C46.8608 45.7558 47.1585 45.5675 47.4092 45.3301C47.6599 45.0926 47.8588 44.8108 47.9945 44.5006C48.1302 44.1904 48.2 43.858 48.2 43.5222C48.2 43.1865 48.1302 42.854 47.9945 42.5438C47.8588 42.2336 47.6599 41.9518 47.4092 41.7144C47.1585 41.477 46.8608 41.2887 46.5332 41.1602C46.2057 41.0317 45.8546 40.9656 45.5 40.9656C44.7839 40.9656 44.0972 41.2349 43.5908 41.7144C43.0845 42.1939 42.8 42.8442 42.8 43.5222C42.8 44.2003 43.0845 44.8506 43.5908 45.3301C44.0972 45.8095 44.7839 46.0789 45.5 46.0789Z" fill="#EA4967"/>
<path d="M38.5153 40.0062L38.5153 40.0059C38.587 39.5719 38.8323 39.1872 39.192 38.934C39.5511 38.6812 39.9963 38.5787 40.4303 38.6462L38.5153 40.0062ZM38.5153 40.0062C38.4438 40.4405 38.553 40.8832 38.8156 41.2363C39.0778 41.589 39.4704 41.8225 39.9048 41.8905L39.9049 41.8905L40.3759 41.964L40.376 41.964C41.717 42.1732 42.5437 42.3065 43.1205 42.4797C43.3879 42.5609 43.5214 42.6283 43.585 42.6695C43.6149 42.6889 43.6268 42.7008 43.6294 42.7035L43.6296 42.7037C43.6311 42.7052 43.6316 42.7058 43.6344 42.7104C43.6374 42.7152 43.6373 42.7155 43.6377 42.7168C43.6386 42.7192 43.6433 42.7335 43.6462 42.7662C43.6526 42.8364 43.6501 42.9792 43.5952 43.2439L43.5951 43.2443C43.4772 43.8154 43.2011 44.5805 42.7472 45.8305L42.5899 46.2624C42.5109 46.4664 42.474 46.6841 42.4817 46.9027C42.4895 47.1236 42.5426 47.3403 42.6375 47.54C42.7324 47.7397 42.8668 47.9179 43.0323 48.0646C43.1978 48.2114 43.391 48.3238 43.6002 48.3959C43.8095 48.468 44.0311 48.4986 44.2521 48.486L44.2237 47.9868L44.2521 48.486C44.4731 48.4735 44.6898 48.418 44.8894 48.3225C45.089 48.227 45.2679 48.0932 45.4152 47.9282C45.5608 47.765 45.6725 47.5746 45.7432 47.3678L45.9303 46.8566L45.9306 46.8558L45.9425 46.8231C46.3447 45.7187 46.7054 44.7285 46.8766 43.8985C47.0643 42.996 47.0956 41.986 46.5082 41.023C45.9224 40.0626 45.0026 39.611 44.1048 39.3398C43.2764 39.0891 42.2122 38.9231 41.021 38.7374L40.988 38.7322L40.9872 38.7321L40.431 38.6463L38.5153 40.0062ZM66.3335 43.4191L66.3334 43.4196C65.9727 44.7974 65.075 45.9351 63.4309 47.2008C61.7762 48.4746 59.4301 49.8307 56.2437 51.6708C53.0574 53.5108 50.7104 54.8651 48.7681 55.6684C46.8391 56.4662 45.3756 56.6915 43.9474 56.3376C42.5223 55.9839 41.3513 55.106 40.0528 53.5088C38.7444 51.8995 37.3513 49.6179 35.4599 46.5173C33.5683 43.4165 32.1775 41.1344 31.3525 39.2467C30.5335 37.3725 30.3052 35.9581 30.6652 34.5808C31.027 33.2032 31.9253 32.0656 33.5696 30.8C35.2246 29.5262 37.5707 28.1702 40.7571 26.33C43.9433 24.49 46.2911 23.1354 48.2335 22.3317C50.1627 21.5336 51.6256 21.3084 53.0511 21.6627L53.0512 21.6627C54.4775 22.0167 55.649 22.8948 56.9478 24.492C58.2564 26.1013 59.6495 28.3829 61.5409 31.4835C63.4324 34.5843 64.8237 36.8671 65.6486 38.7551C66.4676 40.6296 66.6951 42.0436 66.3335 43.4191ZM59.2539 39.452C59.3655 39.0261 59.2983 38.575 59.069 38.1991C58.84 37.8238 58.4698 37.5561 58.0428 37.4501C57.6161 37.3442 57.1632 37.4072 56.7825 37.627L50.0488 41.5157C49.6678 41.7358 49.3882 42.0966 49.2766 42.5222C49.1649 42.9481 49.2322 43.3992 49.4615 43.7751C49.6905 44.1505 50.0607 44.4181 50.4877 44.5241C50.9144 44.63 51.3673 44.567 51.7479 44.3472L58.4816 40.4585C58.8627 40.2385 59.1423 39.8776 59.2539 39.452Z" fill="#FF8097" stroke="#EA4967"/>
</svg>
