<svg width="90" height="90" viewBox="0 0 90 90" fill="none" xmlns="http://www.w3.org/2000/svg">
<rect width="90" height="90" rx="30" fill="#F4788C" fill-opacity="0.2784"/>
<path fill-rule="evenodd" clip-rule="evenodd" d="M25.5784 25.8649C23 28.7273 23 33.3376 23 42.5556V43.1667H67V42.5556C67 33.3376 67 28.7273 64.4216 25.8649C61.8432 23.0024 57.6962 23 49.4 23H40.6C32.3038 23 28.1546 23 25.5784 25.8649ZM67 46.8333H23V47.4444C23 56.6624 23 61.2727 25.5784 64.1351C28.1568 66.9976 32.3038 67 40.6 67H49.4C57.6962 67 61.8454 67 64.4216 64.1351C66.9978 61.2702 67 56.6624 67 47.4444V46.8333ZM30.15 58.4444C30.15 58.9307 30.3238 59.397 30.6333 59.7408C30.9427 60.0846 31.3624 60.2778 31.8 60.2778C32.2376 60.2778 32.6573 60.0846 32.9667 59.7408C33.2762 59.397 33.45 58.9307 33.45 58.4444V53.5556C33.45 53.0693 33.2762 52.603 32.9667 52.2592C32.6573 51.9154 32.2376 51.7222 31.8 51.7222C31.3624 51.7222 30.9427 51.9154 30.6333 52.2592C30.3238 52.603 30.15 53.0693 30.15 53.5556V58.4444ZM38.4 60.2778C37.9624 60.2778 37.5427 60.0846 37.2333 59.7408C36.9238 59.397 36.75 58.9307 36.75 58.4444V53.5556C36.75 53.0693 36.9238 52.603 37.2333 52.2592C37.5427 51.9154 37.9624 51.7222 38.4 51.7222C38.8376 51.7222 39.2573 51.9154 39.5667 52.2592C39.8762 52.603 40.05 53.0693 40.05 53.5556V58.4444C40.05 58.9307 39.8762 59.397 39.5667 59.7408C39.2573 60.0846 38.8376 60.2778 38.4 60.2778ZM48.3 54.1667C47.8624 54.1667 47.4427 54.3598 47.1333 54.7036C46.8238 55.0475 46.65 55.5138 46.65 56C46.65 56.4862 46.8238 56.9525 47.1333 57.2964C47.4427 57.6402 47.8624 57.8333 48.3 57.8333H58.2C58.6376 57.8333 59.0573 57.6402 59.3667 57.2964C59.6762 56.9525 59.85 56.4862 59.85 56C59.85 55.5138 59.6762 55.0475 59.3667 54.7036C59.0573 54.3598 58.6376 54.1667 58.2 54.1667H48.3ZM38.4 38.2778C37.9624 38.2778 37.5427 38.0846 37.2333 37.7408C36.9238 37.397 36.75 36.9307 36.75 36.4444V31.5556C36.75 31.0693 36.9238 30.603 37.2333 30.2592C37.5427 29.9154 37.9624 29.7222 38.4 29.7222C38.8376 29.7222 39.2573 29.9154 39.5667 30.2592C39.8762 30.603 40.05 31.0693 40.05 31.5556V36.4444C40.05 36.9307 39.8762 37.397 39.5667 37.7408C39.2573 38.0846 38.8376 38.2778 38.4 38.2778ZM30.15 36.4444C30.15 36.9307 30.3238 37.397 30.6333 37.7408C30.9427 38.0846 31.3624 38.2778 31.8 38.2778C32.2376 38.2778 32.6573 38.0846 32.9667 37.7408C33.2762 37.397 33.45 36.9307 33.45 36.4444V31.5556C33.45 31.0693 33.2762 30.603 32.9667 30.2592C32.6573 29.9154 32.2376 29.7222 31.8 29.7222C31.3624 29.7222 30.9427 29.9154 30.6333 30.2592C30.3238 30.603 30.15 31.0693 30.15 31.5556V36.4444ZM46.65 34C46.65 33.5138 46.8238 33.0475 47.1333 32.7036C47.4427 32.3598 47.8624 32.1667 48.3 32.1667H58.2C58.6376 32.1667 59.0573 32.3598 59.3667 32.7036C59.6762 33.0475 59.85 33.5138 59.85 34C59.85 34.4862 59.6762 34.9525 59.3667 35.2964C59.0573 35.6402 58.6376 35.8333 58.2 35.8333H48.3C47.8624 35.8333 47.4427 35.6402 47.1333 35.2964C46.8238 34.9525 46.65 34.4862 46.65 34Z" fill="#EA4967"/>
<path d="M61.9191 69.2451L61.9199 69.2444C62.3012 68.9442 62.6908 68.644 63.084 68.3411C64.7599 67.0501 66.5006 65.7091 67.9361 64.0929C69.6826 62.1264 70.9167 59.8116 70.9167 56.8043C70.9167 53.8436 69.243 51.3467 66.9381 50.2927C64.6806 49.2604 61.6817 49.5572 58.8737 52.475L58.3333 53.0366L57.7929 52.475C54.9848 49.5571 51.9859 49.2597 49.7285 50.2916C47.4237 51.3451 45.75 53.8415 45.75 56.803C45.75 59.8109 46.9843 62.1257 48.7311 64.0924C50.1642 65.7059 51.9011 67.0451 53.574 68.3349C53.9702 68.6404 54.3629 68.9431 54.7471 69.246M61.9191 69.2451L54.7471 69.246M61.9191 69.2451C61.2205 69.797 60.5815 70.2936 59.9612 70.6561C59.3407 71.0188 58.8097 71.2036 58.3333 71.2036C57.8571 71.2036 57.3262 71.0186 56.7054 70.6558M61.9191 69.2451L56.7054 70.6558M54.7471 69.246C55.446 69.7968 56.0849 70.2931 56.7054 70.6558M54.7471 69.246L56.7054 70.6558" fill="#FF8097" stroke="#EA4967" stroke-width="1.5"/>
</svg>
