<svg width="169" height="41" viewBox="0 0 169 41" fill="none" xmlns="http://www.w3.org/2000/svg">
    <mask id="mask0_17_204" style="mask-type:alpha" maskUnits="userSpaceOnUse" x="0" y="0" width="40" height="41">
    <path fill-rule="evenodd" clip-rule="evenodd" d="M32.5201 0.012175C32.862 0.0476862 33.1909 0.15539 33.4825 0.327282C33.7741 0.499175 34.0209 0.730836 34.2046 1.00505C41.5281 11.9418 40.4227 23.552 34.3053 30.8647C31.25 34.5146 26.9588 37.0615 21.9536 37.8148C17.5869 38.4688 12.8151 37.7371 8.00674 35.3629C7.56504 36.6773 7.2515 37.953 7.0707 39.1552C6.98274 39.72 6.66116 40.2289 6.17633 40.5706C5.69149 40.9123 5.08288 41.0589 4.48367 40.9784C3.88447 40.8979 3.34347 40.5969 2.97906 40.1411C2.61465 39.6853 2.4565 39.112 2.53923 38.5465C2.85715 36.5437 3.39559 34.5775 4.14584 32.6799C0.628235 29.0322 -0.332986 24.4175 0.0949862 20.2949C0.566442 15.7471 2.7658 11.3849 5.62887 9.13368C9.45544 6.12699 13.4743 4.89237 16.9621 4.28802C18.4864 4.03922 20.0211 3.85127 21.5622 3.72467C22.6585 3.62106 23.7776 3.55199 24.8487 3.30162C26.4341 2.94007 27.9493 2.34572 29.339 1.54034C30.3505 0.944615 31.2133 -0.125964 32.5201 0.012175ZM9.7255 31.3352C12.2704 26.4421 16.4311 21.7518 21.8483 19.1963C22.1195 19.0709 22.3618 18.8962 22.5611 18.6821C22.7603 18.468 22.9127 18.2189 23.0094 17.949C23.1061 17.6791 23.1452 17.3939 23.1245 17.1097C23.1037 16.8255 23.0235 16.548 22.8885 16.2932C22.7535 16.0384 22.5663 15.8113 22.3378 15.625C22.1093 15.4387 21.8439 15.297 21.557 15.2079C21.2701 15.1188 20.9673 15.0841 20.6662 15.1059C20.365 15.1277 20.0714 15.2055 19.8023 15.3348C13.8336 18.1494 9.26091 23.0167 6.28799 28.2077C6.87889 29.1158 7.6119 29.9344 8.46218 30.6359C8.88633 30.8848 9.30592 31.118 9.7255 31.3352Z" fill="#93FF90"/>
    </mask>
    <g mask="url(#mask0_17_204)">
    <rect width="39.3023" height="41" fill="#F4788C"/>
    <path d="M12.5802 24.4265C12.4033 24.3884 12.2309 24.3147 12.063 24.2056C11.8951 24.0964 11.758 23.9501 11.6515 23.7666L10.6281 22.1666C9.58049 20.5249 8.66001 18.9218 7.86661 17.3571C7.07321 15.7924 6.84968 14.2077 7.19602 12.6032C7.47859 11.292 8.11254 10.2827 9.09784 9.57547C10.0831 8.86822 11.1696 8.64255 12.3571 8.89849C13.0267 9.04279 13.6246 9.33571 14.1508 9.77725C14.677 10.2188 15.0899 10.7568 15.3894 11.3912C15.9236 10.937 16.5213 10.6171 17.1827 10.4315C17.8441 10.2459 18.5096 10.225 19.1793 10.3687C20.3668 10.6247 21.2639 11.2778 21.8704 12.3281C22.4769 13.3784 22.6389 14.5592 22.3563 15.8704C22.0106 17.4745 21.1566 18.8304 19.7941 19.9381C18.4317 21.0458 16.9224 22.1291 15.2664 23.1881L13.6982 24.2077C13.5262 24.3311 13.3412 24.408 13.1432 24.4384C12.9452 24.4687 12.7576 24.4647 12.5802 24.4265Z" fill="#EA4967"/>
    <path d="M0 20.817C0 18.7248 1.87899 17.1336 3.94259 17.4782C4.44359 17.5619 4.91935 17.7572 5.33458 18.0498L5.52977 18.1873C7.04404 19.2541 9.06201 19.2668 10.5896 18.2191L12.0244 17.2349C14.0687 15.8328 16.8292 16.1268 18.5324 17.9279L20.1937 19.6848C21.446 21.0091 23.585 20.9024 24.6993 19.4599C25.5392 18.3726 27.0157 18.0038 28.2682 18.5686L28.8946 18.851C30.3723 19.5173 32.1092 19.1834 33.2346 18.0169L33.3726 17.8739C34.0225 17.2003 34.9182 16.8198 35.8542 16.8198C37.7585 16.8198 39.3023 18.3636 39.3023 20.268V30.5099C39.3023 38.0707 33.1731 44.2 25.6123 44.2H12.5548C5.621 44.2 0 38.579 0 31.6451V20.817Z" fill="#F9B3BD"/>
    </g>
    <mask id="mask1_17_204" style="mask-type:alpha" maskUnits="userSpaceOnUse" x="55" y="11" width="114" height="19">
    <path d="M57.9449 12.7974C58.1658 12.7974 58.3449 12.9764 58.3449 13.1974V28.8684C58.3449 29.0893 58.1658 29.2684 57.9449 29.2684H55.4692C55.2482 29.2684 55.0692 29.0893 55.0692 28.8684V13.1974C55.0692 12.9764 55.2482 12.7974 55.4692 12.7974H57.9449Z" fill="white"/>
    <path d="M73.6313 22.8358C73.6313 23.1474 73.6161 23.4372 73.5855 23.7052C73.5635 23.8983 73.396 24.0377 73.2017 24.0377H64.4981C64.2634 24.0377 64.0768 24.2397 64.1219 24.47C64.2566 25.1569 64.564 25.7102 65.0442 26.13C65.6214 26.6345 66.3311 26.8868 67.1735 26.8868C68.3004 26.8868 69.1262 26.4604 69.651 25.6075C69.7293 25.4802 69.8645 25.3955 70.014 25.3955H72.7582C73.0285 25.3955 73.2208 25.6584 73.1156 25.9074C72.7102 26.8671 72.0553 27.6758 71.1511 28.3336C70.0904 29.0904 68.7879 29.4687 67.2437 29.4687C65.9958 29.4687 64.8727 29.2091 63.8743 28.6897C62.8916 28.1555 62.1195 27.4062 61.5579 26.4416C61.012 25.4771 60.739 24.3642 60.739 23.1029C60.739 21.8268 61.012 20.7064 61.5579 19.7419C62.1039 18.7774 62.8682 18.0355 63.8509 17.5161C64.8337 16.9967 65.9646 16.7371 67.2437 16.7371C68.476 16.7371 69.5757 16.9893 70.5428 17.4938C71.5255 17.9984 72.2821 18.718 72.8124 19.6529C73.3584 20.5729 73.6313 21.6339 73.6313 22.8358ZM69.8308 21.9455C70.0547 21.9455 70.2386 21.7606 70.2038 21.5393C70.1076 20.9256 69.815 20.4229 69.3261 20.0313C68.7333 19.5416 68.008 19.2968 67.1501 19.2968C66.3389 19.2968 65.6526 19.5342 65.091 20.009C64.6491 20.3814 64.3451 20.8753 64.1792 21.4908C64.1155 21.7269 64.3049 21.9455 64.5495 21.9455H69.8308Z" fill="white"/>
    <path d="M75.18 23.0584C75.18 21.8119 75.4374 20.7064 75.9521 19.7419C76.4825 18.7774 77.1922 18.0355 78.0814 17.5161C78.9861 16.9967 79.9922 16.7371 81.0997 16.7371C82.0668 16.7371 82.9092 16.9225 83.6267 17.2935C83.9678 17.4661 84.2768 17.6596 84.5538 17.8739C84.8553 18.1073 85.3816 17.9074 85.3816 17.5262V17.3374C85.3816 17.1165 85.5607 16.9374 85.7816 16.9374H88.2807C88.5016 16.9374 88.6807 17.1165 88.6807 17.3374V28.8684C88.6807 29.0893 88.5016 29.2684 88.2807 29.2684H85.7816C85.5607 29.2684 85.3816 29.0893 85.3816 28.8684V28.6949C85.3816 28.3076 84.831 28.1041 84.5257 28.3425C84.2582 28.5514 83.9586 28.7413 83.6267 28.9123C82.8936 29.2833 82.0434 29.4687 81.0763 29.4687C79.9844 29.4687 78.9861 29.2016 78.0814 28.6675C77.1922 28.1333 76.4825 27.3839 75.9521 26.4194C75.4374 25.44 75.18 24.3197 75.18 23.0584ZM85.3816 23.1029C85.3816 22.3461 85.2256 21.7006 84.9136 21.1664C84.6016 20.6174 84.1805 20.2019 83.6501 19.92C83.1198 19.6232 82.5504 19.4748 81.9421 19.4748C81.3337 19.4748 80.7722 19.6158 80.2574 19.8977C79.7426 20.1797 79.3215 20.5951 78.9939 21.1442C78.6819 21.6784 78.5259 22.3164 78.5259 23.0584C78.5259 23.8003 78.6819 24.4532 78.9939 25.0171C79.3215 25.5661 79.7426 25.989 80.2574 26.2858C80.7878 26.5826 81.3493 26.731 81.9421 26.731C82.5504 26.731 83.1198 26.59 83.6501 26.3081C84.1805 26.0113 84.6016 25.5958 84.9136 25.0616C85.2256 24.5126 85.3816 23.8597 85.3816 23.1029Z" fill="white"/>
    <path d="M97.8232 19.0971C97.8232 19.318 97.6441 19.4971 97.4232 19.4971H95.9535C95.7326 19.4971 95.5535 19.6762 95.5535 19.8971V28.8684C95.5535 29.0893 95.3745 29.2684 95.1535 29.2684H92.631C92.4101 29.2684 92.231 29.0893 92.231 28.8684V19.8971C92.231 19.6762 92.0519 19.4971 91.831 19.4971H91.1569C90.936 19.4971 90.7569 19.318 90.7569 19.0971V17.3374C90.7569 17.1165 90.936 16.9374 91.1569 16.9374H91.831C92.0519 16.9374 92.231 16.7583 92.231 16.5374V16.3142C92.231 14.8006 92.6834 13.6877 93.5881 12.9754C94.4271 12.3149 95.6618 11.9798 97.2921 11.9701C97.5093 11.9688 97.6828 12.1471 97.6828 12.3642V14.1927C97.6828 14.4166 97.4988 14.5946 97.2752 14.606C96.695 14.6356 96.2771 14.7598 96.0215 14.9787C95.7095 15.2458 95.5535 15.728 95.5535 16.4254V16.5374C95.5535 16.7583 95.7326 16.9374 95.9535 16.9374H97.4232C97.6441 16.9374 97.8232 17.1165 97.8232 17.3374V19.0971Z" fill="white"/>
    <path d="M111.783 16.9374C112.004 16.9374 112.183 17.1165 112.183 17.3374V28.8684C112.183 29.0893 112.004 29.2684 111.783 29.2684H109.284C109.063 29.2684 108.884 29.0881 108.884 28.8672C108.884 28.4877 108.36 28.2817 108.052 28.5032C107.801 28.6834 107.525 28.842 107.223 28.9791C106.552 29.2758 105.819 29.4242 105.023 29.4242C104.009 29.4242 103.113 29.2239 102.333 28.8233C101.553 28.4078 100.937 27.8068 100.484 27.0203C100.047 26.2191 99.829 25.2694 99.829 24.1713V17.3374C99.829 17.1165 100.008 16.9374 100.229 16.9374H102.705C102.926 16.9374 103.105 17.1165 103.105 17.3374V23.7261C103.105 24.7055 103.362 25.4623 103.877 25.9965C104.392 26.5158 105.094 26.7755 105.983 26.7755C106.887 26.7755 107.597 26.5158 108.112 25.9965C108.627 25.4623 108.884 24.7055 108.884 23.7261V17.3374C108.884 17.1165 109.063 16.9374 109.284 16.9374H111.783Z" fill="white"/>
    <path d="M120.376 29.4687C119.315 29.4687 118.363 29.2907 117.521 28.9346C116.679 28.5636 116.008 28.0665 115.509 27.4433C115.117 26.9379 114.868 26.3887 114.763 25.7956C114.723 25.5685 114.908 25.3732 115.139 25.3732H117.662C117.862 25.3732 118.026 25.5247 118.093 25.7141C118.207 26.0396 118.422 26.3192 118.738 26.5529C119.175 26.8645 119.713 27.0203 120.352 27.0203C120.976 27.0203 121.46 26.9016 121.803 26.6642C122.162 26.4268 122.341 26.1226 122.341 25.7516C122.341 25.351 122.123 25.0542 121.686 24.8613C121.265 24.6536 120.586 24.431 119.65 24.1936C118.683 23.971 117.888 23.741 117.264 23.5036C116.655 23.2661 116.125 22.9026 115.673 22.4129C115.236 21.9232 115.017 21.2629 115.017 20.4319C115.017 19.7493 115.22 19.1261 115.626 18.5622C116.047 17.9984 116.64 17.5532 117.404 17.2267C118.184 16.9003 119.097 16.7371 120.142 16.7371C121.686 16.7371 122.918 17.108 123.839 17.85C124.651 18.4917 125.141 19.3358 125.309 20.3821C125.346 20.6118 125.161 20.8103 124.928 20.8103H122.588C122.382 20.8103 122.215 20.6511 122.154 20.4541C122.054 20.1296 121.859 19.8625 121.569 19.6529C121.195 19.3561 120.688 19.2077 120.048 19.2077C119.455 19.2077 118.995 19.3116 118.668 19.5193C118.356 19.7271 118.2 20.0164 118.2 20.3874C118.2 20.8029 118.418 21.1219 118.855 21.3445C119.292 21.5522 119.97 21.7674 120.89 21.99C121.826 22.2126 122.598 22.4426 123.207 22.68C123.815 22.9174 124.338 23.2884 124.774 23.7929C125.227 24.2826 125.461 24.9355 125.476 25.7516C125.476 26.4639 125.266 27.102 124.845 27.6658C124.439 28.2297 123.846 28.6749 123.066 29.0013C122.302 29.3129 121.405 29.4687 120.376 29.4687Z" fill="white"/>
    <path d="M129.616 29.4242C129.023 29.4242 128.532 29.2536 128.142 28.9123C127.768 28.5562 127.58 28.1184 127.58 27.5991C127.58 27.0797 127.768 26.6494 128.142 26.3081C128.532 25.952 129.023 25.7739 129.616 25.7739C130.193 25.7739 130.669 25.952 131.043 26.3081C131.418 26.6494 131.605 27.0797 131.605 27.5991C131.605 28.1184 131.418 28.5562 131.043 28.9123C130.669 29.2536 130.193 29.4242 129.616 29.4242Z" fill="white"/>
    <path d="M151.672 16.9374C151.941 16.9374 152.133 17.1977 152.054 17.4549L148.509 28.986C148.458 29.1538 148.303 29.2684 148.127 29.2684H145.195C145.014 29.2684 144.856 29.148 144.809 28.9743L142.912 22.0606C142.804 21.6683 142.248 21.6683 142.141 22.0606L140.244 28.9743C140.196 29.148 140.038 29.2684 139.858 29.2684H136.902C136.726 29.2684 136.571 29.1542 136.519 28.9866L132.953 17.4556C132.873 17.1982 133.066 16.9374 133.335 16.9374H135.801C135.986 16.9374 136.146 17.0634 136.19 17.2425L138.035 24.8008C138.133 25.2038 138.704 25.2091 138.81 24.8081L140.81 17.2353C140.856 17.0597 141.015 16.9374 141.197 16.9374H144.042C144.224 16.9374 144.383 17.0605 144.429 17.2368L146.386 24.7728C146.491 25.175 147.063 25.171 147.162 24.7674L149.003 17.2423C149.047 17.0633 149.207 16.9374 149.392 16.9374H151.672Z" fill="white"/>
    <path d="M158.199 19.4971C157.979 19.4971 157.799 19.6762 157.799 19.8971V25.4623C157.799 25.8778 157.901 26.182 158.104 26.3749C158.322 26.5529 158.681 26.642 159.18 26.642H160.301C160.522 26.642 160.701 26.821 160.701 27.042V28.8684C160.701 29.0893 160.522 29.2684 160.301 29.2684H158.642C155.881 29.2684 154.5 27.9923 154.5 25.44V19.8971C154.5 19.6762 154.321 19.4971 154.1 19.4971H153.356C153.135 19.4971 152.956 19.318 152.956 19.0971V17.3374C152.956 17.1165 153.135 16.9374 153.356 16.9374H154.1C154.321 16.9374 154.5 16.7583 154.5 16.5374V14.288C154.5 14.0671 154.679 13.888 154.9 13.888H157.399C157.62 13.888 157.799 14.0671 157.799 14.288V16.5374C157.799 16.7583 157.979 16.9374 158.199 16.9374H160.301C160.522 16.9374 160.701 17.1165 160.701 17.3374V19.0971C160.701 19.318 160.522 19.4971 160.301 19.4971H158.199Z" fill="white"/>
    <path d="M169 19.0971C169 19.318 168.821 19.4971 168.6 19.4971H167.13C166.909 19.4971 166.73 19.6762 166.73 19.8971V28.8684C166.73 29.0893 166.551 29.2684 166.33 29.2684H163.808C163.587 29.2684 163.408 29.0893 163.408 28.8684V19.8971C163.408 19.6762 163.229 19.4971 163.008 19.4971H162.334C162.113 19.4971 161.934 19.318 161.934 19.0971V17.3374C161.934 17.1165 162.113 16.9374 162.334 16.9374H163.008C163.229 16.9374 163.408 16.7583 163.408 16.5374V16.3142C163.408 14.8006 163.86 13.6877 164.765 12.9754C165.604 12.3149 166.839 11.9798 168.469 11.9701C168.686 11.9688 168.86 12.1471 168.86 12.3642V14.1927C168.86 14.4166 168.676 14.5946 168.452 14.606C167.872 14.6356 167.454 14.7598 167.198 14.9787C166.886 15.2458 166.73 15.728 166.73 16.4254V16.5374C166.73 16.7583 166.909 16.9374 167.13 16.9374H168.6C168.821 16.9374 169 17.1165 169 17.3374V19.0971Z" fill="white"/>
    </mask>
    <g mask="url(#mask1_17_204)">
    <rect x="51.8948" y="11.4619" width="116.991" height="17.8066" fill="#F4788C"/>
    <path d="M50 26.4721C50 23.3727 52.5477 20.879 55.6464 20.9454L64.9601 21.145L71.1557 21.7052C74.1116 21.9724 77.0855 21.976 80.042 21.7157L93.9659 20.4902C97.6668 20.1644 101.393 20.2522 105.074 20.7518L115.284 22.1374C119.609 22.7244 123.998 22.6591 128.304 21.9437C131.499 21.4129 134.744 21.2395 137.977 21.4266L144.977 21.8316C148.141 22.0147 151.316 21.8965 154.458 21.4785L159.375 20.8244H169.412C172.498 20.8244 175 23.3262 175 26.4122C175 29.4983 172.498 32 169.412 32H55.5279C52.4749 32 50 29.5251 50 26.4721Z" fill="#F9B3BD"/>
    </g>
    </svg>
    