<svg width="80" height="80" viewBox="0 0 80 80" fill="none" xmlns="http://www.w3.org/2000/svg">
<g clip-path="url(#clip0_15_11)">
<rect width="80" height="80" rx="15" fill="#F9B3BD" fill-opacity="0.25"/>
<path d="M10.5802 16.4265C10.4033 16.3884 10.2309 16.3147 10.063 16.2056C9.8951 16.0964 9.75795 15.9501 9.65154 15.7666L8.62804 14.1666C7.58048 12.5249 6.66 10.9218 5.8666 9.35708C5.0732 7.79238 4.84967 6.20775 5.19601 4.60316C5.47859 3.29196 6.11253 2.28273 7.09784 1.57547C8.08314 0.868216 9.16957 0.642554 10.3571 0.898487C11.0267 1.04279 11.6246 1.33571 12.1508 1.77725C12.677 2.21879 13.0899 2.75677 13.3894 3.39118C13.9236 2.93702 14.5213 2.61714 15.1827 2.43153C15.844 2.24592 16.5096 2.22499 17.1793 2.36874C18.3668 2.62467 19.2639 3.27779 19.8704 4.32811C20.4769 5.37842 20.6389 6.55918 20.3563 7.87039C20.0106 9.47452 19.1565 10.8304 17.7941 11.9381C16.4317 13.0458 14.9224 14.1291 13.2664 15.1881L11.6982 16.2077C11.5261 16.3311 11.3411 16.408 11.1432 16.4384C10.9452 16.4687 10.7575 16.4647 10.5802 16.4265Z" fill="#F9B3BD" fill-opacity="0.3"/>
<path d="M28.5802 28.4265C28.4033 28.3884 28.2309 28.3147 28.063 28.2056C27.8951 28.0964 27.7579 27.9501 27.6515 27.7666L26.628 26.1666C25.5805 24.5249 24.66 22.9218 23.8666 21.3571C23.0732 19.7924 22.8497 18.2077 23.196 16.6032C23.4786 15.292 24.1125 14.2827 25.0978 13.5755C26.0831 12.8682 27.1696 12.6426 28.3571 12.8985C29.0267 13.0428 29.6246 13.3357 30.1508 13.7772C30.677 14.2188 31.0899 14.7568 31.3894 15.3912C31.9236 14.937 32.5213 14.6171 33.1827 14.4315C33.844 14.2459 34.5096 14.225 35.1793 14.3687C36.3668 14.6247 37.2639 15.2778 37.8704 16.3281C38.4769 17.3784 38.6389 18.5592 38.3563 19.8704C38.0106 21.4745 37.1565 22.8304 35.7941 23.9381C34.4316 25.0458 32.9224 26.1291 31.2664 27.1881L29.6982 28.2077C29.5261 28.3311 29.3411 28.408 29.1432 28.4384C28.9452 28.4687 28.7575 28.4647 28.5802 28.4265Z" fill="#F9B3BD" fill-opacity="0.3"/>
<path d="M46.5802 41.4265C46.4033 41.3884 46.2309 41.3147 46.063 41.2056C45.8951 41.0964 45.7579 40.9501 45.6515 40.7666L44.628 39.1666C43.5805 37.5249 42.66 35.9218 41.8666 34.3571C41.0732 32.7924 40.8497 31.2077 41.196 29.6032C41.4786 28.292 42.1125 27.2827 43.0978 26.5755C44.0831 25.8682 45.1696 25.6426 46.3571 25.8985C47.0267 26.0428 47.6246 26.3357 48.1508 26.7772C48.677 27.2188 49.0899 27.7568 49.3894 28.3912C49.9236 27.937 50.5213 27.6171 51.1827 27.4315C51.844 27.2459 52.5096 27.225 53.1793 27.3687C54.3668 27.6247 55.2639 28.2778 55.8704 29.3281C56.4769 30.3784 56.6389 31.5592 56.3563 32.8704C56.0106 34.4745 55.1565 35.8304 53.7941 36.9381C52.4316 38.0458 50.9224 39.1291 49.2664 40.1881L47.6982 41.2077C47.5261 41.3311 47.3411 41.408 47.1432 41.4384C46.9452 41.4687 46.7575 41.4647 46.5802 41.4265Z" fill="#F9B3BD" fill-opacity="0.3"/>
<path d="M64.5802 54.4265C64.4033 54.3884 64.2309 54.3147 64.063 54.2056C63.8951 54.0964 63.7579 53.9501 63.6515 53.7666L62.628 52.1666C61.5805 50.5249 60.66 48.9218 59.8666 47.3571C59.0732 45.7924 58.8497 44.2077 59.196 42.6032C59.4786 41.292 60.1125 40.2827 61.0978 39.5755C62.0831 38.8682 63.1696 38.6426 64.3571 38.8985C65.0267 39.0428 65.6246 39.3357 66.1508 39.7772C66.677 40.2188 67.0899 40.7568 67.3894 41.3912C67.9236 40.937 68.5213 40.6171 69.1827 40.4315C69.844 40.2459 70.5096 40.225 71.1793 40.3687C72.3668 40.6247 73.2639 41.2778 73.8704 42.3281C74.4769 43.3784 74.6389 44.5592 74.3563 45.8704C74.0106 47.4745 73.1565 48.8304 71.7941 49.9381C70.4316 51.0458 68.9224 52.1291 67.2664 53.1881L65.6982 54.2077C65.5261 54.3311 65.3411 54.408 65.1432 54.4384C64.9452 54.4687 64.7575 54.4647 64.5802 54.4265Z" fill="#F9B3BD" fill-opacity="0.3"/>
<path d="M82.5802 65.4265C82.4033 65.3884 82.2309 65.3147 82.063 65.2056C81.8951 65.0964 81.7579 64.9501 81.6515 64.7666L80.628 63.1666C79.5805 61.5249 78.66 59.9218 77.8666 58.3571C77.0732 56.7924 76.8497 55.2077 77.196 53.6032C77.4786 52.292 78.1125 51.2827 79.0978 50.5755C80.0831 49.8682 81.1696 49.6426 82.3571 49.8985C83.0267 50.0428 83.6246 50.3357 84.1508 50.7772C84.677 51.2188 85.0899 51.7568 85.3894 52.3912C85.9236 51.937 86.5213 51.6171 87.1827 51.4315C87.844 51.2459 88.5096 51.225 89.1793 51.3687C90.3668 51.6247 91.2639 52.2778 91.8704 53.3281C92.4769 54.3784 92.6389 55.5592 92.3563 56.8704C92.0106 58.4745 91.1565 59.8304 89.7941 60.9381C88.4317 62.0458 86.9224 63.1291 85.2664 64.1881L83.6982 65.2077C83.5261 65.3311 83.3411 65.408 83.1432 65.4384C82.9452 65.4687 82.7575 65.4647 82.5802 65.4265Z" fill="#F9B3BD" fill-opacity="0.3"/>
<path d="M-7.41984 34.4265C-7.59671 34.3884 -7.7691 34.3147 -7.937 34.2056C-8.1049 34.0964 -8.24206 33.9501 -8.34847 33.7666L-9.37196 32.1666C-10.4195 30.5249 -11.34 28.9218 -12.1334 27.3571C-12.9268 25.7924 -13.1503 24.2077 -12.804 22.6032C-12.5214 21.292 -11.8875 20.2827 -10.9022 19.5755C-9.91687 18.8682 -8.83043 18.6426 -7.64288 18.8985C-6.97329 19.0428 -6.3754 19.3357 -5.8492 19.7772C-5.323 20.2188 -4.91013 20.7568 -4.61058 21.3912C-4.07643 20.937 -3.47868 20.6171 -2.81732 20.4315C-2.15596 20.2459 -1.49043 20.225 -0.820727 20.3687C0.366832 20.6247 1.26388 21.2778 1.8704 22.3281C2.47693 23.3784 2.63891 24.5592 2.35633 25.8704C2.01062 27.4745 1.15654 28.8304 -0.205907 29.9381C-1.56836 31.0458 -3.07759 32.1291 -4.73362 33.1881L-6.30182 34.2077C-6.47386 34.3311 -6.65886 34.408 -6.85683 34.4384C-7.05479 34.4687 -7.24246 34.4647 -7.41984 34.4265Z" fill="#F9B3BD" fill-opacity="0.3"/>
<path d="M10.5802 46.4265C10.4033 46.3884 10.2309 46.3147 10.063 46.2056C9.8951 46.0964 9.75794 45.9501 9.65153 45.7666L8.62804 44.1666C7.58047 42.5249 6.65999 40.9218 5.86659 39.3571C5.0732 37.7924 4.84967 36.2077 5.196 34.6032C5.47858 33.292 6.11252 32.2827 7.09783 31.5755C8.08313 30.8682 9.16957 30.6426 10.3571 30.8985C11.0267 31.0428 11.6246 31.3357 12.1508 31.7772C12.677 32.2188 13.0899 32.7568 13.3894 33.3912C13.9236 32.937 14.5213 32.6171 15.1827 32.4315C15.844 32.2459 16.5096 32.225 17.1793 32.3687C18.3668 32.6247 19.2639 33.2778 19.8704 34.3281C20.4769 35.3784 20.6389 36.5592 20.3563 37.8704C20.0106 39.4745 19.1565 40.8304 17.7941 41.9381C16.4316 43.0458 14.9224 44.1291 13.2664 45.1881L11.6982 46.2077C11.5261 46.3311 11.3411 46.408 11.1432 46.4384C10.9452 46.4687 10.7575 46.4647 10.5802 46.4265Z" fill="#F9B3BD" fill-opacity="0.3"/>
<path d="M28.5802 59.4265C28.4033 59.3884 28.2309 59.3147 28.063 59.2056C27.8951 59.0964 27.7579 58.9501 27.6515 58.7666L26.628 57.1666C25.5805 55.5249 24.66 53.9218 23.8666 52.3571C23.0732 50.7924 22.8497 49.2077 23.196 47.6032C23.4786 46.292 24.1125 45.2827 25.0978 44.5755C26.0831 43.8682 27.1696 43.6426 28.3571 43.8985C29.0267 44.0428 29.6246 44.3357 30.1508 44.7772C30.677 45.2188 31.0899 45.7568 31.3894 46.3912C31.9236 45.937 32.5213 45.6171 33.1827 45.4315C33.844 45.2459 34.5096 45.225 35.1793 45.3687C36.3668 45.6247 37.2639 46.2778 37.8704 47.3281C38.4769 48.3784 38.6389 49.5592 38.3563 50.8704C38.0106 52.4745 37.1565 53.8304 35.7941 54.9381C34.4316 56.0458 32.9224 57.1291 31.2664 58.1881L29.6982 59.2077C29.5261 59.3311 29.3411 59.408 29.1432 59.4384C28.9452 59.4687 28.7575 59.4647 28.5802 59.4265Z" fill="#F9B3BD" fill-opacity="0.3"/>
<path d="M46.5802 72.4265C46.4033 72.3884 46.2309 72.3147 46.063 72.2056C45.8951 72.0964 45.7579 71.9501 45.6515 71.7666L44.628 70.1666C43.5805 68.5249 42.66 66.9218 41.8666 65.3571C41.0732 63.7924 40.8497 62.2077 41.196 60.6032C41.4786 59.292 42.1125 58.2827 43.0978 57.5755C44.0831 56.8682 45.1696 56.6426 46.3571 56.8985C47.0267 57.0428 47.6246 57.3357 48.1508 57.7772C48.677 58.2188 49.0899 58.7568 49.3894 59.3912C49.9236 58.937 50.5213 58.6171 51.1827 58.4315C51.844 58.2459 52.5096 58.225 53.1793 58.3687C54.3668 58.6247 55.2639 59.2778 55.8704 60.3281C56.4769 61.3784 56.6389 62.5592 56.3563 63.8704C56.0106 65.4745 55.1565 66.8304 53.7941 67.9381C52.4316 69.0458 50.9224 70.1291 49.2664 71.1881L47.6982 72.2077C47.5261 72.3311 47.3411 72.408 47.1432 72.4384C46.9452 72.4687 46.7575 72.4647 46.5802 72.4265Z" fill="#F9B3BD" fill-opacity="0.3"/>
<path d="M64.5802 83.4265C64.4033 83.3884 64.2309 83.3147 64.063 83.2056C63.8951 83.0964 63.758 82.9501 63.6515 82.7666L62.6281 81.1666C61.5805 79.5249 60.66 77.9218 59.8666 76.3571C59.0732 74.7924 58.8497 73.2077 59.196 71.6032C59.4786 70.292 60.1125 69.2827 61.0978 68.5755C62.0831 67.8682 63.1696 67.6426 64.3571 67.8985C65.0267 68.0428 65.6246 68.3357 66.1508 68.7772C66.677 69.2188 67.0899 69.7568 67.3894 70.3912C67.9236 69.937 68.5213 69.6171 69.1827 69.4315C69.8441 69.2459 70.5096 69.225 71.1793 69.3687C72.3668 69.6247 73.2639 70.2778 73.8704 71.3281C74.4769 72.3784 74.6389 73.5592 74.3563 74.8704C74.0106 76.4745 73.1566 77.8304 71.7941 78.9381C70.4317 80.0458 68.9224 81.1291 67.2664 82.1881L65.6982 83.2077C65.5262 83.3311 65.3412 83.408 65.1432 83.4384C64.9452 83.4687 64.7576 83.4647 64.5802 83.4265Z" fill="#F9B3BD" fill-opacity="0.3"/>
<path d="M-5.41984 64.4265C-5.59671 64.3884 -5.7691 64.3147 -5.937 64.2056C-6.1049 64.0964 -6.24206 63.9501 -6.34847 63.7666L-7.37196 62.1666C-8.41953 60.5249 -9.34001 58.9218 -10.1334 57.3571C-10.9268 55.7924 -11.1503 54.2077 -10.804 52.6032C-10.5214 51.292 -9.88748 50.2827 -8.90217 49.5755C-7.91687 48.8682 -6.83043 48.6426 -5.64288 48.8985C-4.97329 49.0428 -4.3754 49.3357 -3.8492 49.7772C-3.323 50.2188 -2.91013 50.7568 -2.61058 51.3912C-2.07643 50.937 -1.47868 50.6171 -0.817317 50.4315C-0.155959 50.2459 0.509571 50.225 1.17927 50.3687C2.36683 50.6247 3.26388 51.2778 3.8704 52.3281C4.47693 53.3784 4.63891 54.5592 4.35633 55.8704C4.01062 57.4745 3.15654 58.8304 1.79409 59.9381C0.431644 61.0458 -1.07759 62.1291 -2.73362 63.1881L-4.30182 64.2077C-4.47386 64.3311 -4.65886 64.408 -4.85683 64.4384C-5.05479 64.4687 -5.24246 64.4647 -5.41984 64.4265Z" fill="#F9B3BD" fill-opacity="0.3"/>
<path d="M12.5802 77.4265C12.4033 77.3884 12.2309 77.3147 12.063 77.2056C11.8951 77.0964 11.7579 76.9501 11.6515 76.7666L10.628 75.1666C9.58047 73.5249 8.65999 71.9218 7.86659 70.3571C7.0732 68.7924 6.84967 67.2077 7.196 65.6032C7.47858 64.292 8.11252 63.2827 9.09783 62.5755C10.0831 61.8682 11.1696 61.6426 12.3571 61.8985C13.0267 62.0428 13.6246 62.3357 14.1508 62.7772C14.677 63.2188 15.0899 63.7568 15.3894 64.3912C15.9236 63.937 16.5213 63.6171 17.1827 63.4315C17.844 63.2459 18.5096 63.225 19.1793 63.3687C20.3668 63.6247 21.2639 64.2778 21.8704 65.3281C22.4769 66.3784 22.6389 67.5592 22.3563 68.8704C22.0106 70.4745 21.1565 71.8304 19.7941 72.9381C18.4316 74.0458 16.9224 75.1291 15.2664 76.1881L13.6982 77.2077C13.5261 77.3311 13.3411 77.408 13.1432 77.4384C12.9452 77.4687 12.7575 77.4647 12.5802 77.4265Z" fill="#F9B3BD" fill-opacity="0.3"/>
<path d="M30.5802 90.4265C30.4033 90.3884 30.2309 90.3147 30.063 90.2056C29.8951 90.0964 29.7579 89.9501 29.6515 89.7666L28.628 88.1666C27.5805 86.5249 26.66 84.9218 25.8666 83.3571C25.0732 81.7924 24.8497 80.2077 25.196 78.6032C25.4786 77.292 26.1125 76.2827 27.0978 75.5755C28.0831 74.8682 29.1696 74.6426 30.3571 74.8985C31.0267 75.0428 31.6246 75.3357 32.1508 75.7772C32.677 76.2188 33.0899 76.7568 33.3894 77.3912C33.9236 76.937 34.5213 76.6171 35.1827 76.4315C35.844 76.2459 36.5096 76.225 37.1793 76.3687C38.3668 76.6247 39.2639 77.2778 39.8704 78.3281C40.4769 79.3784 40.6389 80.5592 40.3563 81.8704C40.0106 83.4745 39.1565 84.8304 37.7941 85.9381C36.4316 87.0458 34.9224 88.1291 33.2664 89.1881L31.6982 90.2077C31.5261 90.3311 31.3411 90.408 31.1432 90.4384C30.9452 90.4687 30.7575 90.4647 30.5802 90.4265Z" fill="#F9B3BD" fill-opacity="0.3"/>
<path d="M48.5802 10.4265C48.4033 10.3884 48.2309 10.3147 48.063 10.2056C47.8951 10.0964 47.7579 9.95007 47.6515 9.76658L46.628 8.1666C45.5805 6.52494 44.66 4.92177 43.8666 3.35708C43.0732 1.79238 42.8497 0.207745 43.196 -1.39684C43.4786 -2.70804 44.1125 -3.71727 45.0978 -4.42453C46.0831 -5.13178 47.1696 -5.35745 48.3571 -5.10151C49.0267 -4.95721 49.6246 -4.66429 50.1508 -4.22275C50.677 -3.78121 51.0899 -3.24323 51.3894 -2.60882C51.9236 -3.06298 52.5213 -3.38286 53.1827 -3.56847C53.844 -3.75408 54.5096 -3.77501 55.1793 -3.63126C56.3668 -3.37533 57.2639 -2.72221 57.8704 -1.67189C58.4769 -0.621576 58.6389 0.559184 58.3563 1.87039C58.0106 3.47452 57.1565 4.83042 55.7941 5.9381C54.4317 7.04577 52.9224 8.12911 51.2664 9.18811L49.6982 10.2077C49.5261 10.3311 49.3411 10.408 49.1432 10.4384C48.9452 10.4687 48.7575 10.4647 48.5802 10.4265Z" fill="#F9B3BD" fill-opacity="0.3"/>
<path d="M66.5802 22.4265C66.4033 22.3884 66.2309 22.3147 66.063 22.2056C65.8951 22.0964 65.7579 21.9501 65.6515 21.7666L64.628 20.1666C63.5805 18.5249 62.66 16.9218 61.8666 15.3571C61.0732 13.7924 60.8497 12.2077 61.196 10.6032C61.4786 9.29196 62.1125 8.28273 63.0978 7.57547C64.0831 6.86822 65.1696 6.64255 66.3571 6.89849C67.0267 7.04279 67.6246 7.33571 68.1508 7.77725C68.677 8.21879 69.0899 8.75677 69.3894 9.39118C69.9236 8.93702 70.5213 8.61714 71.1827 8.43153C71.844 8.24592 72.5096 8.22499 73.1793 8.36874C74.3668 8.62467 75.2639 9.27779 75.8704 10.3281C76.4769 11.3784 76.6389 12.5592 76.3563 13.8704C76.0106 15.4745 75.1565 16.8304 73.7941 17.9381C72.4316 19.0458 70.9224 20.1291 69.2664 21.1881L67.6982 22.2077C67.5261 22.3311 67.3411 22.408 67.1432 22.4384C66.9452 22.4687 66.7575 22.4647 66.5802 22.4265Z" fill="#F9B3BD" fill-opacity="0.3"/>
<path d="M84.5802 35.4265C84.4033 35.3884 84.2309 35.3147 84.063 35.2056C83.8951 35.0964 83.7579 34.9501 83.6515 34.7666L82.628 33.1666C81.5805 31.5249 80.66 29.9218 79.8666 28.3571C79.0732 26.7924 78.8497 25.2077 79.196 23.6032C79.4786 22.292 80.1125 21.2827 81.0978 20.5755C82.0831 19.8682 83.1696 19.6426 84.3571 19.8985C85.0267 20.0428 85.6246 20.3357 86.1508 20.7772C86.677 21.2188 87.0899 21.7568 87.3894 22.3912C87.9236 21.937 88.5213 21.6171 89.1827 21.4315C89.844 21.2459 90.5096 21.225 91.1793 21.3687C92.3668 21.6247 93.2639 22.2778 93.8704 23.3281C94.4769 24.3784 94.6389 25.5592 94.3563 26.8704C94.0106 28.4745 93.1565 29.8304 91.7941 30.9381C90.4316 32.0458 88.9224 33.1291 87.2664 34.1881L85.6982 35.2077C85.5261 35.3311 85.3411 35.408 85.1432 35.4384C84.9452 35.4687 84.7575 35.4647 84.5802 35.4265Z" fill="#F9B3BD" fill-opacity="0.3"/>
</g>
<defs>
<clipPath id="clip0_15_11">
<rect width="80" height="80" rx="15" fill="white"/>
</clipPath>
</defs>
</svg>
