<svg width="66" height="50" viewBox="0 0 66 50" fill="none" xmlns="http://www.w3.org/2000/svg">
<path d="M39.9103 23.8459C41.2847 23.0472 43.4737 24.0191 44.8065 26.0406C46.1343 28.0498 46.1185 30.3278 44.7491 31.1388C43.392 31.9448 41.1907 30.978 39.8455 28.9614C38.5053 26.9572 38.5459 24.6693 39.9103 23.8459ZM48.7518 20.2804C50.318 19.9219 51.9221 21.5466 52.3719 23.9098C52.7897 26.3004 51.8873 28.5189 50.3384 28.8848C48.7771 29.2556 47.1854 27.626 46.7603 25.2527C46.3178 22.8721 47.2202 20.6536 48.7518 20.2804ZM35.5886 32.202C36.7539 31.0276 39.1144 31.3552 40.889 32.868C42.6167 34.4428 43.123 36.6251 41.97 37.7945C40.817 38.964 38.4739 38.6437 36.7141 37.0963C34.9543 35.5488 34.4677 33.3441 35.5886 32.202ZM57.8468 23.2259C59.4464 23.2709 60.6254 25.1963 60.4315 27.5317C60.2375 29.8671 58.772 31.7232 57.1303 31.6808C55.4887 31.6384 54.3393 29.7153 54.4912 27.3826C54.7199 25.0619 56.1928 23.1885 57.8468 23.2259ZM61.1574 37.3889C61.6757 38.5313 61.304 40.1764 60.435 41.0875C58.6304 42.9941 55.1612 41.9491 52.7004 42.9415C50.2396 43.9339 48.476 47.1898 45.8558 46.9669C44.3749 46.8596 42.8734 45.5962 42.4956 44.1959C41.9752 42.2636 43.7897 40.3817 44.5569 38.5053C45.5973 36.0586 45.5124 32.283 47.9979 31.2807C50.471 30.2833 53.0833 32.9822 55.4758 34.102C57.4568 35.0571 60.258 35.4082 61.1574 37.3889Z" fill="#F4788C"/>
<path d="M7.48178 8.79255C8.75245 7.83749 11.0407 8.54456 12.6025 10.395C14.1579 12.2337 14.4106 14.4976 13.1463 15.4643C11.8937 16.4247 9.59376 15.724 8.0203 13.88C6.45325 12.0477 6.22393 9.771 7.48178 8.79255ZM15.8414 4.20988C17.3545 3.66931 19.1389 5.0936 19.8641 7.38737C20.5607 9.71207 19.926 12.0215 18.431 12.5673C16.9243 13.1196 15.1517 11.6889 14.4498 9.38229C13.7298 7.07042 14.3645 4.76101 15.8414 4.20988ZM4.17496 17.5998C5.19377 16.2962 7.57643 16.3433 9.51691 17.6364C11.4182 18.9966 12.1781 21.1041 11.171 22.4012C10.1639 23.6984 7.79934 23.6566 5.86942 22.3273C3.9395 20.998 3.19651 18.866 4.17496 17.5998ZM25.2202 6.06297C26.8139 5.91914 28.2117 7.69221 28.2943 10.0342C28.3769 12.3761 27.1404 14.392 25.5052 14.5434C23.8699 14.6947 22.502 12.9205 22.3779 10.5861C22.3315 8.25475 23.5733 6.22073 25.2202 6.06297ZM30.1769 19.7371C30.8262 20.8105 30.6509 22.4879 29.8954 23.4951C28.3282 25.6011 24.7599 24.9723 22.4332 26.2477C20.1066 27.5232 18.739 30.9642 16.1108 31.0517C14.6275 31.1197 12.9876 30.042 12.4474 28.696C11.7028 26.8386 13.2829 24.7559 13.8236 22.8021C14.5685 20.2499 14.0392 16.5106 16.3892 15.2223C18.7276 13.9405 21.6398 16.3126 24.1475 17.1427C26.2272 17.8577 29.0504 17.8762 30.1769 19.7371Z" fill="#F4788C"/>
</svg>
