<svg width="47" height="36" viewBox="0 0 47 36" fill="none" xmlns="http://www.w3.org/2000/svg">
<path d="M29.0484 0C28.826 0 28.6168 0.105593 28.4843 0.284196C27.344 1.8206 26.2649 3.21647 24.8256 4.433C23.8444 5.19825 22.8716 6.00081 21.7967 6.6355C20.494 7.20353 17.6369 7.43433 16.4723 8.69813C16.4387 8.73466 16.4088 8.77409 16.3861 8.81828C16.1613 9.25604 16.144 10.1393 16.3962 11.2222C16.4724 11.5491 16.5693 11.8919 16.682 12.2442C16.8391 12.7347 17.3597 13.0015 17.8582 12.872C19.5505 12.4325 21.2122 12.0034 22.6962 11.3184C25.1318 9.85002 27.5176 8.25717 29.4649 6.32831C29.6496 6.14541 29.7499 5.89497 29.7499 5.63508V0.701503C29.7499 0.314074 29.4359 0 29.0484 0ZM21.1887 0.845312C19.0856 0.831062 17.0544 1.45981 15.4086 2.39819C12.3192 4.15969 10.6839 6.79506 10.5636 9.38431C10.8238 13.4222 13.2581 17.6791 14.7389 21.3908C14.8981 22.0177 14.8929 22.4388 14.8258 22.6986C14.7587 22.9583 14.6728 23.1559 14.2058 23.5101C13.2803 24.2117 12.1965 24.5653 11.1364 24.649C10.8923 24.6683 10.6575 24.7595 10.4767 24.9246C9.52142 25.7969 8.57621 26.6257 7.79302 27.6067C7.40175 28.0968 7.64489 28.8007 8.25478 28.9468C11.0813 29.6237 14.2873 29.095 16.9241 27.0961C18.0519 26.2411 18.8619 25.0655 19.1827 23.8244C19.4944 22.6177 19.3846 21.4432 19.1231 20.3744C19.1081 20.3133 19.0868 20.254 19.0601 20.1971C18.2562 18.4858 17.3694 16.832 16.7202 15.4119C16.1333 14.1181 15.5942 12.7383 15.3005 11.4775C15.0786 10.5255 14.9688 9.62515 15.17 8.85721C15.1708 8.85423 15.1681 8.85149 15.1651 8.85221C15.1621 8.85291 15.1595 8.85024 15.1602 8.84728C15.3613 8.02619 15.9387 7.27589 17.6374 6.30737C18.6302 5.74125 20.3399 5.37256 21.7141 5.44019C21.7212 5.44054 21.7282 5.43854 21.7339 5.43417C22.8326 4.58264 23.8993 3.79262 24.8679 2.91221C25.3365 2.48619 25.2409 1.73592 24.6528 1.50077C24.6047 1.48153 24.5565 1.46292 24.5082 1.44494C23.4119 1.03662 22.2905 0.852812 21.1887 0.845312ZM29.0589 10.2487C29.1575 9.41197 28.1859 8.9794 27.5157 9.49001C26.3946 10.3441 25.2176 11.1111 24.0788 11.8041C23.9667 11.8723 23.8703 11.9627 23.7861 12.0634C23.5803 12.3097 23.3232 12.547 23.004 12.7925C21.6186 13.7149 20.2991 14.2745 18.9007 14.7462C18.3277 14.9395 18.0369 15.5832 18.3044 16.1255C18.7458 17.0204 19.1796 17.8242 19.5231 18.4373C19.7569 18.8548 20.2582 19.0404 20.707 18.8745C22.5217 18.2038 24.4362 17.3492 25.7468 16.36C27.1765 15.2608 28.4049 13.6718 28.8257 11.6628C28.9272 11.1778 29.0049 10.7064 29.0589 10.2487ZM9.87475 11.985C9.7168 11.3563 9.02434 11.0107 8.45927 11.3284C6.87837 12.2174 5.40106 13.3746 4.19469 14.9276C2.3575 17.2929 1.51469 19.7311 1.71156 21.9945C1.7232 22.1286 1.7386 22.2614 1.75761 22.3929C1.86636 23.1452 2.78882 23.3049 3.29208 22.7353C4.38913 21.4936 5.59768 20.2464 6.6105 19.3509C6.70776 19.2649 6.7877 19.1616 6.84937 19.0474C7.0756 18.6283 7.37005 18.1755 7.74869 17.6881C8.36098 16.8998 9.17169 16.2415 10.1105 15.6781C10.5423 15.4191 10.75 14.8966 10.5898 14.4193C10.3328 13.6537 10.0897 12.8407 9.87475 11.985ZM12.0898 18.1918C11.8493 17.6707 11.2242 17.4331 10.7292 17.7236C10.6536 17.768 10.5786 17.8131 10.5042 17.8591C7.51713 19.7083 4.76419 22.6119 2.592 25.3218C1.63532 26.6106 0.794093 27.9188 0.0504402 29.1916C0.017329 29.2483 0 29.3127 0 29.3783C0 29.5836 0.166399 29.75 0.371663 29.75H4.47921C4.81545 29.75 5.12907 29.581 5.3136 29.2999C6.15313 28.0212 7.02214 26.7046 7.99469 25.7056C9.46406 24.2196 11.2432 22.6986 12.8684 21.6879C13.2281 21.4657 13.4096 21.0261 13.2355 20.6408C12.8349 19.7543 12.4435 18.9578 12.0898 18.1918Z" fill="#F4788C"/>
<mask id="path-2-outside-1_27_4" maskUnits="userSpaceOnUse" x="6.09193" y="4.13517" width="40.4436" height="32.8369" fill="black">
<rect fill="white" x="6.09193" y="4.13517" width="40.4436" height="32.8369"/>
<path d="M9.35328 24.2757C9.47535 24.4965 9.85959 24.4392 9.96603 24.2106C10.033 24.0667 10.114 23.9238 10.2089 23.7821C10.4743 23.3794 10.8462 23.0498 11.3247 22.7935C11.8817 22.4952 12.4586 22.3617 13.0554 22.3928C13.6601 22.4198 14.2308 22.6153 14.7677 22.9793C15.3081 23.3314 15.7601 23.8361 16.1236 24.4934C16.4872 25.1507 16.6767 25.806 16.6923 26.4592C16.7114 27.1005 16.5704 27.6822 16.2694 28.2043C15.9763 28.7222 15.5512 29.1303 14.9942 29.4286C14.5157 29.6849 14.0387 29.8151 13.563 29.8192C13.1363 29.8192 12.7096 30.3445 12.9161 30.7179L14.1334 32.919C14.3223 33.2605 14.1954 33.6905 13.8514 33.8748L13.4383 34.0961C13.1007 34.2769 12.6805 34.1529 12.4952 33.8178L7.92516 25.5544C7.73627 25.2129 7.86317 24.7829 8.20722 24.5986L9.00301 24.1724C9.12838 24.1052 9.28445 24.1513 9.35328 24.2757ZM14.441 25.3946C14.2271 25.008 13.9609 24.7196 13.6422 24.5294C13.327 24.3273 12.9955 24.2242 12.6475 24.2201C12.3074 24.2119 11.9844 24.2896 11.6784 24.4535C11.3803 24.6132 11.1407 24.8417 10.9595 25.1393C10.7819 25.4248 10.6899 25.7548 10.6834 26.1292C10.6847 26.4993 10.7923 26.8777 11.0062 27.2644C11.22 27.651 11.4845 27.9454 11.7996 28.1475C12.1226 28.3454 12.4563 28.4524 12.8007 28.4684C13.1487 28.4725 13.4717 28.3947 13.7698 28.235C14.0757 28.0711 14.3154 27.8426 14.4887 27.5492C14.6699 27.2517 14.7598 26.9179 14.7584 26.5477C14.7649 26.1734 14.6591 25.789 14.441 25.3946Z"/>
<path d="M15.4018 17.9485C15.7394 17.7677 16.1596 17.8917 16.3449 18.2268L20.4145 25.5854C20.6034 25.9269 20.4765 26.3569 20.1325 26.5412L19.7194 26.7625C19.3818 26.9433 18.9616 26.8193 18.7763 26.4842L14.7067 19.1256C14.5178 18.7841 14.6447 18.3541 14.9887 18.1698L15.4018 17.9485Z"/>
<path d="M25.3379 23.8885C24.7103 24.2247 24.0706 24.3918 23.4189 24.3901C22.7629 24.3806 22.1508 24.2022 21.5825 23.855C21.0221 23.5036 20.5602 22.9993 20.1966 22.342C19.8331 21.6846 19.6575 21.0269 19.6697 20.3688C19.6898 19.7065 19.88 19.1035 20.2402 18.5597C20.5961 18.0082 21.0879 17.5644 21.7154 17.2283C22.343 16.8922 22.9887 16.7267 23.6525 16.732C24.3121 16.7296 24.926 16.902 25.4943 17.2492C26.0704 17.5922 26.5402 18.0923 26.9037 18.7496C27.2672 19.407 27.435 20.0689 27.4071 20.7354C27.387 21.3977 27.195 22.0067 26.8313 22.5624C26.4711 23.1062 25.9733 23.5482 25.3379 23.8885ZM24.5552 22.4734C24.8533 22.3137 25.0933 22.095 25.2752 21.8171C25.4606 21.5273 25.5527 21.1974 25.5513 20.8272C25.55 20.457 25.436 20.067 25.2093 19.6572C24.8714 19.0463 24.4479 18.6666 23.9388 18.5183C23.4333 18.358 22.9452 18.404 22.4745 18.6561C22.0039 18.9081 21.6997 19.2866 21.5619 19.7914C21.4278 20.2842 21.5297 20.8361 21.8675 21.447C22.2054 22.0579 22.6192 22.4477 23.1091 22.6164C23.6025 22.7731 24.0845 22.7255 24.5552 22.4734Z"/>
<path d="M28.1066 14.2315C28.2286 14.4522 28.6129 14.395 28.7193 14.1663C28.7863 14.0224 28.8673 13.8796 28.9622 13.7378C29.2276 13.3351 29.5995 13.0056 30.078 12.7493C30.635 12.451 31.2119 12.3174 31.8087 12.3486C32.4133 12.3755 32.9841 12.571 33.521 12.935C34.0614 13.2871 34.5134 13.7918 34.8769 14.4491C35.2404 15.1064 35.43 15.7617 35.4455 16.4149C35.4647 17.0563 35.3237 17.6379 35.0227 18.16C34.7295 18.6779 34.3045 19.086 33.7475 19.3843C33.269 19.6406 32.7919 19.7708 32.3163 19.775C31.8896 19.7749 31.4629 20.3002 31.6694 20.6736L32.8867 22.8747C33.0756 23.2162 32.9487 23.6463 32.6047 23.8305L32.1915 24.0518C31.854 24.2326 31.4338 24.1086 31.2485 23.7735L26.6784 15.5102C26.4896 15.1686 26.6165 14.7386 26.9605 14.5543L27.7563 14.1281C27.8817 14.061 28.0377 14.107 28.1066 14.2315ZM33.1943 15.3503C32.9804 14.9637 32.7142 14.6753 32.3955 14.4851C32.0803 14.283 31.7488 14.1799 31.4008 14.1759C31.0607 14.1676 30.7376 14.2454 30.4317 14.4092C30.1336 14.5689 29.894 14.7975 29.7128 15.095C29.5352 15.3806 29.4431 15.7105 29.4366 16.0849C29.438 16.455 29.5456 16.8335 29.7594 17.2201C29.9733 17.6068 30.2378 17.9011 30.5529 18.1032C30.8759 18.3011 31.2096 18.4081 31.554 18.4241C31.9019 18.4282 32.225 18.3504 32.5231 18.1907C32.829 18.0269 33.0686 17.7983 33.242 17.505C33.4231 17.2075 33.5131 16.8736 33.5117 16.5035C33.5182 16.1291 33.4124 15.7447 33.1943 15.3503Z"/>
<path d="M34.8094 8.0049C35.155 7.8198 35.5852 7.95459 35.7634 8.30381L38.0372 12.76C38.2105 13.0995 38.0802 13.5153 37.7442 13.6952L37.5483 13.8002C37.2192 13.9765 36.8097 13.8635 36.6176 13.5434L34.0403 9.24966C33.8345 8.90667 33.9574 8.46121 34.31 8.27234L34.8094 8.0049ZM39.1913 16.4385C38.8932 16.5982 38.597 16.6416 38.3025 16.5688C38.0116 16.484 37.7913 16.3063 37.6416 16.0356C37.4919 15.765 37.462 15.4903 37.5519 15.2116C37.6454 14.921 37.8411 14.6958 38.1392 14.5362C38.4295 14.3807 38.7201 14.3454 39.011 14.4301C39.2976 14.5071 39.5158 14.681 39.6655 14.9516C39.8151 15.2223 39.8472 15.5009 39.7616 15.7873C39.6717 16.066 39.4816 16.2831 39.1913 16.4385Z"/>
<path d="M40.8438 12.0802C40.4808 12.2746 40.0227 12.0978 39.9473 11.693C39.8551 11.1984 39.8644 10.7658 39.9751 10.3954C40.1392 9.84636 40.4919 9.42691 41.0332 9.13701C41.2685 9.01096 41.5017 8.93619 41.7328 8.91268C41.9674 8.87724 42.233 8.8703 42.5296 8.89185C42.7699 8.90348 42.9678 8.90275 43.1232 8.88966C43.2865 8.87236 43.4388 8.8259 43.58 8.75027C43.7839 8.64103 43.9184 8.48884 43.9833 8.29368C43.9963 8.2582 44.0064 8.2217 44.0137 8.18416C44.0789 7.84908 44.1617 7.4764 44.4627 7.31522C44.8271 7.12003 45.2872 7.29759 45.3612 7.70435C45.4511 8.19875 45.4381 8.63227 45.3223 9.00491C45.1582 9.55391 44.8055 9.97336 44.2642 10.2633C44.0289 10.3893 43.7978 10.4679 43.5711 10.4992C43.3479 10.5185 43.0841 10.5195 42.7796 10.5021C42.5236 10.4989 42.3179 10.5038 42.1624 10.5169C42.0148 10.5258 41.8704 10.5681 41.7292 10.6437C41.5253 10.7529 41.389 10.9111 41.3205 11.1182C41.3058 11.1585 41.2945 11.2 41.2866 11.2428C41.2264 11.5682 41.1355 11.924 40.8438 12.0802Z"/>
</mask>
<path d="M9.35328 24.2757C9.47535 24.4965 9.85959 24.4392 9.96603 24.2106C10.033 24.0667 10.114 23.9238 10.2089 23.7821C10.4743 23.3794 10.8462 23.0498 11.3247 22.7935C11.8817 22.4952 12.4586 22.3617 13.0554 22.3928C13.6601 22.4198 14.2308 22.6153 14.7677 22.9793C15.3081 23.3314 15.7601 23.8361 16.1236 24.4934C16.4872 25.1507 16.6767 25.806 16.6923 26.4592C16.7114 27.1005 16.5704 27.6822 16.2694 28.2043C15.9763 28.7222 15.5512 29.1303 14.9942 29.4286C14.5157 29.6849 14.0387 29.8151 13.563 29.8192C13.1363 29.8192 12.7096 30.3445 12.9161 30.7179L14.1334 32.919C14.3223 33.2605 14.1954 33.6905 13.8514 33.8748L13.4383 34.0961C13.1007 34.2769 12.6805 34.1529 12.4952 33.8178L7.92516 25.5544C7.73627 25.2129 7.86317 24.7829 8.20722 24.5986L9.00301 24.1724C9.12838 24.1052 9.28445 24.1513 9.35328 24.2757ZM14.441 25.3946C14.2271 25.008 13.9609 24.7196 13.6422 24.5294C13.327 24.3273 12.9955 24.2242 12.6475 24.2201C12.3074 24.2119 11.9844 24.2896 11.6784 24.4535C11.3803 24.6132 11.1407 24.8417 10.9595 25.1393C10.7819 25.4248 10.6899 25.7548 10.6834 26.1292C10.6847 26.4993 10.7923 26.8777 11.0062 27.2644C11.22 27.651 11.4845 27.9454 11.7996 28.1475C12.1226 28.3454 12.4563 28.4524 12.8007 28.4684C13.1487 28.4725 13.4717 28.3947 13.7698 28.235C14.0757 28.0711 14.3154 27.8426 14.4887 27.5492C14.6699 27.2517 14.7598 26.9179 14.7584 26.5477C14.7649 26.1734 14.6591 25.789 14.441 25.3946Z" fill="#EA4967"/>
<path d="M15.4018 17.9485C15.7394 17.7677 16.1596 17.8917 16.3449 18.2268L20.4145 25.5854C20.6034 25.9269 20.4765 26.3569 20.1325 26.5412L19.7194 26.7625C19.3818 26.9433 18.9616 26.8193 18.7763 26.4842L14.7067 19.1256C14.5178 18.7841 14.6447 18.3541 14.9887 18.1698L15.4018 17.9485Z" fill="#EA4967"/>
<path d="M25.3379 23.8885C24.7103 24.2247 24.0706 24.3918 23.4189 24.3901C22.7629 24.3806 22.1508 24.2022 21.5825 23.855C21.0221 23.5036 20.5602 22.9993 20.1966 22.342C19.8331 21.6846 19.6575 21.0269 19.6697 20.3688C19.6898 19.7065 19.88 19.1035 20.2402 18.5597C20.5961 18.0082 21.0879 17.5644 21.7154 17.2283C22.343 16.8922 22.9887 16.7267 23.6525 16.732C24.3121 16.7296 24.926 16.902 25.4943 17.2492C26.0704 17.5922 26.5402 18.0923 26.9037 18.7496C27.2672 19.407 27.435 20.0689 27.4071 20.7354C27.387 21.3977 27.195 22.0067 26.8313 22.5624C26.4711 23.1062 25.9733 23.5482 25.3379 23.8885ZM24.5552 22.4734C24.8533 22.3137 25.0933 22.095 25.2752 21.8171C25.4606 21.5273 25.5527 21.1974 25.5513 20.8272C25.55 20.457 25.436 20.067 25.2093 19.6572C24.8714 19.0463 24.4479 18.6666 23.9388 18.5183C23.4333 18.358 22.9452 18.404 22.4745 18.6561C22.0039 18.9081 21.6997 19.2866 21.5619 19.7914C21.4278 20.2842 21.5297 20.8361 21.8675 21.447C22.2054 22.0579 22.6192 22.4477 23.1091 22.6164C23.6025 22.7731 24.0845 22.7255 24.5552 22.4734Z" fill="#EA4967"/>
<path d="M28.1066 14.2315C28.2286 14.4522 28.6129 14.395 28.7193 14.1663C28.7863 14.0224 28.8673 13.8796 28.9622 13.7378C29.2276 13.3351 29.5995 13.0056 30.078 12.7493C30.635 12.451 31.2119 12.3174 31.8087 12.3486C32.4133 12.3755 32.9841 12.571 33.521 12.935C34.0614 13.2871 34.5134 13.7918 34.8769 14.4491C35.2404 15.1064 35.43 15.7617 35.4455 16.4149C35.4647 17.0563 35.3237 17.6379 35.0227 18.16C34.7295 18.6779 34.3045 19.086 33.7475 19.3843C33.269 19.6406 32.7919 19.7708 32.3163 19.775C31.8896 19.7749 31.4629 20.3002 31.6694 20.6736L32.8867 22.8747C33.0756 23.2162 32.9487 23.6463 32.6047 23.8305L32.1915 24.0518C31.854 24.2326 31.4338 24.1086 31.2485 23.7735L26.6784 15.5102C26.4896 15.1686 26.6165 14.7386 26.9605 14.5543L27.7563 14.1281C27.8817 14.061 28.0377 14.107 28.1066 14.2315ZM33.1943 15.3503C32.9804 14.9637 32.7142 14.6753 32.3955 14.4851C32.0803 14.283 31.7488 14.1799 31.4008 14.1759C31.0607 14.1676 30.7376 14.2454 30.4317 14.4092C30.1336 14.5689 29.894 14.7975 29.7128 15.095C29.5352 15.3806 29.4431 15.7105 29.4366 16.0849C29.438 16.455 29.5456 16.8335 29.7594 17.2201C29.9733 17.6068 30.2378 17.9011 30.5529 18.1032C30.8759 18.3011 31.2096 18.4081 31.554 18.4241C31.9019 18.4282 32.225 18.3504 32.5231 18.1907C32.829 18.0269 33.0686 17.7983 33.242 17.505C33.4231 17.2075 33.5131 16.8736 33.5117 16.5035C33.5182 16.1291 33.4124 15.7447 33.1943 15.3503Z" fill="#EA4967"/>
<path d="M34.8094 8.0049C35.155 7.8198 35.5852 7.95459 35.7634 8.30381L38.0372 12.76C38.2105 13.0995 38.0802 13.5153 37.7442 13.6952L37.5483 13.8002C37.2192 13.9765 36.8097 13.8635 36.6176 13.5434L34.0403 9.24966C33.8345 8.90667 33.9574 8.46121 34.31 8.27234L34.8094 8.0049ZM39.1913 16.4385C38.8932 16.5982 38.597 16.6416 38.3025 16.5688C38.0116 16.484 37.7913 16.3063 37.6416 16.0356C37.4919 15.765 37.462 15.4903 37.5519 15.2116C37.6454 14.921 37.8411 14.6958 38.1392 14.5362C38.4295 14.3807 38.7201 14.3454 39.011 14.4301C39.2976 14.5071 39.5158 14.681 39.6655 14.9516C39.8151 15.2223 39.8472 15.5009 39.7616 15.7873C39.6717 16.066 39.4816 16.2831 39.1913 16.4385Z" fill="#EA4967"/>
<path d="M40.8438 12.0802C40.4808 12.2746 40.0227 12.0978 39.9473 11.693C39.8551 11.1984 39.8644 10.7658 39.9751 10.3954C40.1392 9.84636 40.4919 9.42691 41.0332 9.13701C41.2685 9.01096 41.5017 8.93619 41.7328 8.91268C41.9674 8.87724 42.233 8.8703 42.5296 8.89185C42.7699 8.90348 42.9678 8.90275 43.1232 8.88966C43.2865 8.87236 43.4388 8.8259 43.58 8.75027C43.7839 8.64103 43.9184 8.48884 43.9833 8.29368C43.9963 8.2582 44.0064 8.2217 44.0137 8.18416C44.0789 7.84908 44.1617 7.4764 44.4627 7.31522C44.8271 7.12003 45.2872 7.29759 45.3612 7.70435C45.4511 8.19875 45.4381 8.63227 45.3223 9.00491C45.1582 9.55391 44.8055 9.97336 44.2642 10.2633C44.0289 10.3893 43.7978 10.4679 43.5711 10.4992C43.3479 10.5185 43.0841 10.5195 42.7796 10.5021C42.5236 10.4989 42.3179 10.5038 42.1624 10.5169C42.0148 10.5258 41.8704 10.5681 41.7292 10.6437C41.5253 10.7529 41.389 10.9111 41.3205 11.1182C41.3058 11.1585 41.2945 11.2 41.2866 11.2428C41.2264 11.5682 41.1355 11.924 40.8438 12.0802Z" fill="#EA4967"/>
<path d="M9.35328 24.2757C9.47535 24.4965 9.85959 24.4392 9.96603 24.2106C10.033 24.0667 10.114 23.9238 10.2089 23.7821C10.4743 23.3794 10.8462 23.0498 11.3247 22.7935C11.8817 22.4952 12.4586 22.3617 13.0554 22.3928C13.6601 22.4198 14.2308 22.6153 14.7677 22.9793C15.3081 23.3314 15.7601 23.8361 16.1236 24.4934C16.4872 25.1507 16.6767 25.806 16.6923 26.4592C16.7114 27.1005 16.5704 27.6822 16.2694 28.2043C15.9763 28.7222 15.5512 29.1303 14.9942 29.4286C14.5157 29.6849 14.0387 29.8151 13.563 29.8192C13.1363 29.8192 12.7096 30.3445 12.9161 30.7179L14.1334 32.919C14.3223 33.2605 14.1954 33.6905 13.8514 33.8748L13.4383 34.0961C13.1007 34.2769 12.6805 34.1529 12.4952 33.8178L7.92516 25.5544C7.73627 25.2129 7.86317 24.7829 8.20722 24.5986L9.00301 24.1724C9.12838 24.1052 9.28445 24.1513 9.35328 24.2757ZM14.441 25.3946C14.2271 25.008 13.9609 24.7196 13.6422 24.5294C13.327 24.3273 12.9955 24.2242 12.6475 24.2201C12.3074 24.2119 11.9844 24.2896 11.6784 24.4535C11.3803 24.6132 11.1407 24.8417 10.9595 25.1393C10.7819 25.4248 10.6899 25.7548 10.6834 26.1292C10.6847 26.4993 10.7923 26.8777 11.0062 27.2644C11.22 27.651 11.4845 27.9454 11.7996 28.1475C12.1226 28.3454 12.4563 28.4524 12.8007 28.4684C13.1487 28.4725 13.4717 28.3947 13.7698 28.235C14.0757 28.0711 14.3154 27.8426 14.4887 27.5492C14.6699 27.2517 14.7598 26.9179 14.7584 26.5477C14.7649 26.1734 14.6591 25.789 14.441 25.3946Z" stroke="#0D0D0D" stroke-width="2" mask="url(#path-2-outside-1_27_4)"/>
<path d="M15.4018 17.9485C15.7394 17.7677 16.1596 17.8917 16.3449 18.2268L20.4145 25.5854C20.6034 25.9269 20.4765 26.3569 20.1325 26.5412L19.7194 26.7625C19.3818 26.9433 18.9616 26.8193 18.7763 26.4842L14.7067 19.1256C14.5178 18.7841 14.6447 18.3541 14.9887 18.1698L15.4018 17.9485Z" stroke="#0D0D0D" stroke-width="2" mask="url(#path-2-outside-1_27_4)"/>
<path d="M25.3379 23.8885C24.7103 24.2247 24.0706 24.3918 23.4189 24.3901C22.7629 24.3806 22.1508 24.2022 21.5825 23.855C21.0221 23.5036 20.5602 22.9993 20.1966 22.342C19.8331 21.6846 19.6575 21.0269 19.6697 20.3688C19.6898 19.7065 19.88 19.1035 20.2402 18.5597C20.5961 18.0082 21.0879 17.5644 21.7154 17.2283C22.343 16.8922 22.9887 16.7267 23.6525 16.732C24.3121 16.7296 24.926 16.902 25.4943 17.2492C26.0704 17.5922 26.5402 18.0923 26.9037 18.7496C27.2672 19.407 27.435 20.0689 27.4071 20.7354C27.387 21.3977 27.195 22.0067 26.8313 22.5624C26.4711 23.1062 25.9733 23.5482 25.3379 23.8885ZM24.5552 22.4734C24.8533 22.3137 25.0933 22.095 25.2752 21.8171C25.4606 21.5273 25.5527 21.1974 25.5513 20.8272C25.55 20.457 25.436 20.067 25.2093 19.6572C24.8714 19.0463 24.4479 18.6666 23.9388 18.5183C23.4333 18.358 22.9452 18.404 22.4745 18.6561C22.0039 18.9081 21.6997 19.2866 21.5619 19.7914C21.4278 20.2842 21.5297 20.8361 21.8675 21.447C22.2054 22.0579 22.6192 22.4477 23.1091 22.6164C23.6025 22.7731 24.0845 22.7255 24.5552 22.4734Z" stroke="#0D0D0D" stroke-width="2" mask="url(#path-2-outside-1_27_4)"/>
<path d="M28.1066 14.2315C28.2286 14.4522 28.6129 14.395 28.7193 14.1663C28.7863 14.0224 28.8673 13.8796 28.9622 13.7378C29.2276 13.3351 29.5995 13.0056 30.078 12.7493C30.635 12.451 31.2119 12.3174 31.8087 12.3486C32.4133 12.3755 32.9841 12.571 33.521 12.935C34.0614 13.2871 34.5134 13.7918 34.8769 14.4491C35.2404 15.1064 35.43 15.7617 35.4455 16.4149C35.4647 17.0563 35.3237 17.6379 35.0227 18.16C34.7295 18.6779 34.3045 19.086 33.7475 19.3843C33.269 19.6406 32.7919 19.7708 32.3163 19.775C31.8896 19.7749 31.4629 20.3002 31.6694 20.6736L32.8867 22.8747C33.0756 23.2162 32.9487 23.6463 32.6047 23.8305L32.1915 24.0518C31.854 24.2326 31.4338 24.1086 31.2485 23.7735L26.6784 15.5102C26.4896 15.1686 26.6165 14.7386 26.9605 14.5543L27.7563 14.1281C27.8817 14.061 28.0377 14.107 28.1066 14.2315ZM33.1943 15.3503C32.9804 14.9637 32.7142 14.6753 32.3955 14.4851C32.0803 14.283 31.7488 14.1799 31.4008 14.1759C31.0607 14.1676 30.7376 14.2454 30.4317 14.4092C30.1336 14.5689 29.894 14.7975 29.7128 15.095C29.5352 15.3806 29.4431 15.7105 29.4366 16.0849C29.438 16.455 29.5456 16.8335 29.7594 17.2201C29.9733 17.6068 30.2378 17.9011 30.5529 18.1032C30.8759 18.3011 31.2096 18.4081 31.554 18.4241C31.9019 18.4282 32.225 18.3504 32.5231 18.1907C32.829 18.0269 33.0686 17.7983 33.242 17.505C33.4231 17.2075 33.5131 16.8736 33.5117 16.5035C33.5182 16.1291 33.4124 15.7447 33.1943 15.3503Z" stroke="#0D0D0D" stroke-width="2" mask="url(#path-2-outside-1_27_4)"/>
<path d="M34.8094 8.0049C35.155 7.8198 35.5852 7.95459 35.7634 8.30381L38.0372 12.76C38.2105 13.0995 38.0802 13.5153 37.7442 13.6952L37.5483 13.8002C37.2192 13.9765 36.8097 13.8635 36.6176 13.5434L34.0403 9.24966C33.8345 8.90667 33.9574 8.46121 34.31 8.27234L34.8094 8.0049ZM39.1913 16.4385C38.8932 16.5982 38.597 16.6416 38.3025 16.5688C38.0116 16.484 37.7913 16.3063 37.6416 16.0356C37.4919 15.765 37.462 15.4903 37.5519 15.2116C37.6454 14.921 37.8411 14.6958 38.1392 14.5362C38.4295 14.3807 38.7201 14.3454 39.011 14.4301C39.2976 14.5071 39.5158 14.681 39.6655 14.9516C39.8151 15.2223 39.8472 15.5009 39.7616 15.7873C39.6717 16.066 39.4816 16.2831 39.1913 16.4385Z" stroke="#0D0D0D" stroke-width="2" mask="url(#path-2-outside-1_27_4)"/>
<path d="M40.8438 12.0802C40.4808 12.2746 40.0227 12.0978 39.9473 11.693C39.8551 11.1984 39.8644 10.7658 39.9751 10.3954C40.1392 9.84636 40.4919 9.42691 41.0332 9.13701C41.2685 9.01096 41.5017 8.93619 41.7328 8.91268C41.9674 8.87724 42.233 8.8703 42.5296 8.89185C42.7699 8.90348 42.9678 8.90275 43.1232 8.88966C43.2865 8.87236 43.4388 8.8259 43.58 8.75027C43.7839 8.64103 43.9184 8.48884 43.9833 8.29368C43.9963 8.2582 44.0064 8.2217 44.0137 8.18416C44.0789 7.84908 44.1617 7.4764 44.4627 7.31522C44.8271 7.12003 45.2872 7.29759 45.3612 7.70435C45.4511 8.19875 45.4381 8.63227 45.3223 9.00491C45.1582 9.55391 44.8055 9.97336 44.2642 10.2633C44.0289 10.3893 43.7978 10.4679 43.5711 10.4992C43.3479 10.5185 43.0841 10.5195 42.7796 10.5021C42.5236 10.4989 42.3179 10.5038 42.1624 10.5169C42.0148 10.5258 41.8704 10.5681 41.7292 10.6437C41.5253 10.7529 41.389 10.9111 41.3205 11.1182C41.3058 11.1585 41.2945 11.2 41.2866 11.2428C41.2264 11.5682 41.1355 11.924 40.8438 12.0802Z" stroke="#0D0D0D" stroke-width="2" mask="url(#path-2-outside-1_27_4)"/>
<mask id="path-3-outside-2_27_4" maskUnits="userSpaceOnUse" x="15" y="22" width="15" height="10" fill="black">
<rect fill="white" x="15" y="22" width="15" height="10"/>
<path d="M16.2547 30.1837C16.327 30.1437 16.3987 30.1232 16.4697 30.122C16.4959 30.1212 16.5211 30.1224 16.5455 30.1258C16.582 30.1309 16.6197 30.0876 16.6019 30.0554C16.5919 30.0372 16.5984 30.0143 16.6166 30.0043L16.743 29.9344C16.7913 29.9077 16.8522 29.9252 16.8789 29.9736L17.3703 30.8628C17.42 30.9527 17.4461 31.0426 17.4486 31.1326C17.4518 31.2238 17.4285 31.3098 17.3787 31.3906C17.3295 31.4726 17.2536 31.542 17.1509 31.5987C17.0132 31.6748 16.8823 31.7053 16.7581 31.6901C16.6725 31.6791 16.5991 31.6467 16.5377 31.5928C16.4931 31.5536 16.5095 31.4848 16.5615 31.4561L16.6418 31.4117C16.6807 31.3902 16.7284 31.3998 16.7692 31.4175C16.793 31.4279 16.8192 31.4336 16.8479 31.4349C16.9059 31.4379 16.9652 31.4226 17.0259 31.3891C17.0971 31.3497 17.1429 31.2962 17.1634 31.2285C17.1845 31.162 17.1712 31.0856 17.1235 30.9992C17.098 30.9531 17.0126 30.9649 16.9866 31.0107C16.982 31.0188 16.9771 31.0269 16.9719 31.035C16.9338 31.0957 16.8792 31.1456 16.808 31.185C16.7263 31.2301 16.64 31.2504 16.5491 31.2458C16.4582 31.2412 16.372 31.2119 16.2904 31.158C16.2093 31.1023 16.1414 31.0248 16.0865 30.9256C16.0324 30.8276 16.0036 30.73 16.0002 30.6329C15.9979 30.5351 16.0188 30.4474 16.0627 30.3698C16.1078 30.2915 16.1718 30.2295 16.2547 30.1837ZM16.8517 30.5073C16.8188 30.4478 16.7791 30.4035 16.7325 30.3744C16.6853 30.3441 16.6357 30.3288 16.5838 30.3286C16.5312 30.3272 16.4822 30.3391 16.4367 30.3642C16.3912 30.3894 16.3553 30.4237 16.329 30.4671C16.3028 30.5106 16.2893 30.5607 16.2887 30.6174C16.2885 30.6723 16.3046 30.7289 16.3369 30.7873C16.3691 30.8456 16.4092 30.8905 16.457 30.922C16.5054 30.9516 16.5553 30.9674 16.6067 30.9695C16.6592 30.9709 16.7077 30.9594 16.752 30.9349C16.7976 30.9097 16.834 30.8751 16.8615 30.831C16.8882 30.7857 16.9017 30.7356 16.9018 30.6807C16.9013 30.6246 16.8846 30.5668 16.8517 30.5073Z"/>
<path d="M18.2277 29.7194C18.2316 29.7265 18.2354 29.7334 18.2389 29.7403C18.2613 29.7838 18.2416 29.8351 18.1988 29.8588L17.6591 30.157C17.6079 30.1853 17.5905 30.254 17.637 30.2895C17.6648 30.3108 17.6953 30.3255 17.7285 30.3335C17.7936 30.3493 17.8576 30.3398 17.9207 30.305C17.9917 30.2657 18.0336 30.2115 18.0463 30.1423C18.0532 30.1048 18.0713 30.0687 18.1046 30.0502L18.1968 29.9993C18.2555 29.9669 18.3291 30.0009 18.3259 30.0678C18.323 30.1307 18.308 30.1929 18.2811 30.2543C18.2347 30.3577 18.1537 30.4413 18.0381 30.5052C17.9448 30.5568 17.8495 30.5828 17.7522 30.5832C17.6555 30.5818 17.5651 30.5548 17.4812 30.5022C17.3984 30.4489 17.3296 30.3727 17.2748 30.2735C17.2194 30.1731 17.1911 30.0737 17.19 29.9753C17.1889 29.8769 17.2139 29.7869 17.2648 29.7054C17.3158 29.624 17.3891 29.5568 17.4848 29.5039C17.577 29.4529 17.6702 29.4273 17.7645 29.427C17.8599 29.4261 17.9478 29.4514 18.0281 29.503C18.1089 29.5527 18.1755 29.6249 18.2277 29.7194ZM17.8461 29.8389C17.895 29.8119 17.9139 29.7465 17.8687 29.7135C17.8439 29.6953 17.8155 29.6831 17.7837 29.6769C17.7181 29.6629 17.6532 29.6736 17.589 29.7091C17.5283 29.7426 17.4873 29.7897 17.4659 29.8502C17.4567 29.8762 17.4522 29.9034 17.4523 29.9317C17.4525 29.9925 17.5225 30.0178 17.5758 29.9883L17.8461 29.8389Z"/>
<path d="M18.6343 29.1519C18.586 29.1786 18.5685 29.2395 18.5952 29.2878L18.8061 29.6694C18.8241 29.7021 18.8449 29.7218 18.8685 29.7286C18.8926 29.7336 18.9233 29.7258 18.9606 29.7051L18.9869 29.6906C19.0352 29.6639 19.0961 29.6814 19.1228 29.7298L19.1402 29.7613C19.1669 29.8096 19.1494 29.8705 19.101 29.8972L19.0345 29.9339C18.828 30.0481 18.6692 30.0048 18.5583 29.8041L18.3319 29.3945C18.3143 29.3626 18.2741 29.351 18.2422 29.3686C18.2103 29.3863 18.1702 29.3747 18.1525 29.3428L18.1051 29.257C18.0875 29.2251 18.0991 29.185 18.131 29.1673C18.1629 29.1497 18.1745 29.1095 18.1568 29.0776L18.1046 28.9831C18.0779 28.9348 18.0954 28.8739 18.1437 28.8472L18.2155 28.8076C18.2638 28.7808 18.3247 28.7984 18.3514 28.8467L18.3872 28.9115C18.4139 28.9598 18.4747 28.9773 18.5231 28.9506L18.5651 28.9274C18.6134 28.9007 18.6743 28.9182 18.701 28.9666L18.7155 28.9928C18.7422 29.0412 18.7247 29.102 18.6763 29.1287L18.6343 29.1519Z"/>
<path d="M20.3983 29.1803C20.3716 29.195 20.3397 29.1968 20.3116 29.1851L20.0629 29.0819C19.9755 29.0457 19.8913 29.1398 19.937 29.2227L19.9786 29.2979C20.0053 29.3462 19.9878 29.4071 19.9395 29.4338L19.8695 29.4725C19.8211 29.4992 19.7603 29.4817 19.7336 29.4333L19.1144 28.3131C19.0877 28.2647 19.1052 28.2039 19.1536 28.1772L19.2236 28.1385C19.2719 28.1117 19.3328 28.1293 19.3595 28.1776L19.5793 28.5754C19.6252 28.6584 19.75 28.637 19.7655 28.5434L19.8087 28.2835C19.8137 28.2533 19.8322 28.2271 19.859 28.2123L19.9419 28.1665C20.0172 28.1249 20.1064 28.1914 20.088 28.2754L19.996 28.6959C19.9852 28.7453 20.0128 28.7949 20.0605 28.8117L20.4642 28.9535C20.5457 28.9822 20.555 29.0936 20.4794 29.1354L20.3983 29.1803Z"/>
<path d="M20.7979 27.6752C20.9134 27.6113 21.0271 27.5965 21.1389 27.6307C21.2501 27.6637 21.3418 27.7455 21.414 27.8762L21.68 28.3576C21.7068 28.4059 21.6892 28.4668 21.6409 28.4935L21.5709 28.5322C21.5225 28.5589 21.4617 28.5414 21.435 28.493L21.1873 28.0449C21.1448 27.9679 21.0929 27.9196 21.0319 27.9001C20.9701 27.8793 20.906 27.8873 20.8395 27.9241C20.7718 27.9615 20.7297 28.0122 20.7133 28.0761C20.6973 28.1382 20.7106 28.2078 20.7532 28.2848L21.0009 28.733C21.0276 28.7813 21.0101 28.8421 20.9617 28.8689L20.8917 28.9075C20.8434 28.9343 20.7825 28.9167 20.7558 28.8684L20.3166 28.0737C20.2899 28.0253 20.3074 27.9645 20.3558 27.9378L20.4824 27.8678C20.4995 27.8584 20.5209 27.8645 20.5303 27.8816C20.5466 27.911 20.5956 27.904 20.6096 27.8735C20.6206 27.8497 20.6341 27.8268 20.6502 27.8048C20.688 27.7519 20.7372 27.7087 20.7979 27.6752Z"/>
<path d="M22.4008 28.0941C22.3074 28.1457 22.2121 28.1717 22.1149 28.1721C22.017 28.1714 21.9254 28.145 21.8403 28.0931C21.7564 28.0404 21.687 27.9645 21.6322 27.8653C21.5774 27.7661 21.5506 27.6667 21.5519 27.567C21.5543 27.4666 21.5822 27.375 21.6354 27.2923C21.6881 27.2083 21.7611 27.1406 21.8544 27.089C21.9478 27.0374 22.044 27.0116 22.1431 27.0117C22.2415 27.0106 22.3333 27.0361 22.4184 27.0881C22.5046 27.1394 22.5752 27.2147 22.63 27.3139C22.6848 27.4131 22.7104 27.5132 22.7068 27.6142C22.7044 27.7146 22.6763 27.807 22.6225 27.8916C22.5692 27.9744 22.4953 28.0419 22.4008 28.0941ZM22.2828 27.8805C22.3271 27.856 22.3627 27.8226 22.3896 27.7804C22.417 27.7363 22.4305 27.6862 22.43 27.6301C22.4295 27.574 22.4121 27.515 22.3779 27.4532C22.327 27.361 22.2634 27.304 22.1873 27.282C22.1118 27.2583 22.039 27.2658 21.9689 27.3045C21.8989 27.3432 21.8539 27.4008 21.8337 27.4774C21.8142 27.5523 21.8298 27.6358 21.8808 27.7279C21.9317 27.8201 21.9938 27.8787 22.0671 27.9038C22.1408 27.927 22.2127 27.9192 22.2828 27.8805Z"/>
<path d="M23.0259 26.7249C22.9775 26.7516 22.96 26.8125 22.9867 26.8608L23.1976 27.2424C23.2157 27.2751 23.2365 27.2948 23.26 27.3016C23.2841 27.3066 23.3148 27.2987 23.3522 27.2781L23.3784 27.2636C23.4268 27.2369 23.4876 27.2544 23.5143 27.3027L23.5317 27.3343C23.5584 27.3826 23.5409 27.4434 23.4926 27.4701L23.4261 27.5069C23.2195 27.6211 23.0608 27.5778 22.9498 27.3771L22.7235 26.9675C22.7058 26.9355 22.6657 26.924 22.6338 26.9416C22.6019 26.9592 22.5617 26.9477 22.5441 26.9158L22.4967 26.83C22.4791 26.7981 22.4906 26.7579 22.5225 26.7403C22.5544 26.7227 22.566 26.6825 22.5484 26.6506L22.4961 26.5561C22.4694 26.5078 22.4869 26.4469 22.5353 26.4202L22.607 26.3805C22.6554 26.3538 22.7162 26.3714 22.7429 26.4197L22.7787 26.4845C22.8054 26.5328 22.8663 26.5503 22.9146 26.5236L22.9566 26.5004C23.005 26.4737 23.0658 26.4912 23.0925 26.5395L23.107 26.5658C23.1338 26.6141 23.1162 26.675 23.0679 26.7017L23.0259 26.7249Z"/>
<path d="M23.7045 26.3499C23.6562 26.3766 23.6387 26.4374 23.6654 26.4857L23.8763 26.8673C23.8943 26.9 23.9151 26.9198 23.9387 26.9265C23.9628 26.9315 23.9935 26.9237 24.0308 26.903L24.0571 26.8885C24.1054 26.8618 24.1663 26.8793 24.193 26.9277L24.2104 26.9592C24.2371 27.0075 24.2196 27.0684 24.1712 27.0951L24.1047 27.1318C23.8982 27.246 23.7394 27.2027 23.6285 27.002L23.4021 26.5924C23.3845 26.5605 23.3443 26.5489 23.3124 26.5666C23.2805 26.5842 23.2404 26.5726 23.2227 26.5407L23.1753 26.4549C23.1577 26.423 23.1693 26.3829 23.2012 26.3652C23.2331 26.3476 23.2446 26.3075 23.227 26.2756L23.1748 26.181C23.1481 26.1327 23.1656 26.0719 23.2139 26.0451L23.2857 26.0055C23.334 25.9788 23.3949 25.9963 23.4216 26.0446L23.4574 26.1094C23.4841 26.1577 23.5449 26.1753 23.5933 26.1485L23.6353 26.1253C23.6836 26.0986 23.7445 26.1161 23.7712 26.1645L23.7857 26.1907C23.8124 26.2391 23.7949 26.2999 23.7465 26.3266L23.7045 26.3499Z"/>
<path d="M25.0569 25.9452C25.0608 25.9523 25.0646 25.9592 25.0681 25.9661C25.0905 26.0095 25.0708 26.0609 25.028 26.0846L24.4883 26.3828C24.4371 26.4111 24.4197 26.4797 24.4662 26.5153C24.494 26.5366 24.5245 26.5513 24.5577 26.5593C24.6228 26.5751 24.6868 26.5656 24.7499 26.5308C24.8209 26.4915 24.8628 26.4373 24.8755 26.3681C24.8824 26.3306 24.9005 26.2945 24.9338 26.276L25.026 26.2251C25.0847 26.1927 25.1583 26.2267 25.1551 26.2936C25.1522 26.3565 25.1372 26.4187 25.1103 26.4801C25.0639 26.5835 24.9829 26.6671 24.8673 26.7309C24.774 26.7825 24.6787 26.8086 24.5814 26.809C24.4847 26.8076 24.3943 26.7806 24.3104 26.728C24.2276 26.6747 24.1588 26.5984 24.104 26.4993C24.0486 26.3989 24.0203 26.2995 24.0192 26.2011C24.0181 26.1026 24.0431 26.0127 24.094 25.9312C24.145 25.8497 24.2183 25.7826 24.314 25.7297C24.4062 25.6787 24.4994 25.6531 24.5937 25.6528C24.6891 25.6518 24.777 25.6772 24.8573 25.7287C24.9381 25.7785 25.0047 25.8507 25.0569 25.9452ZM24.6753 26.0647C24.7242 26.0377 24.7431 25.9723 24.6979 25.9393C24.6731 25.9211 24.6447 25.9089 24.6129 25.9026C24.5473 25.8886 24.4824 25.8994 24.4182 25.9349C24.3575 25.9684 24.3165 26.0154 24.2951 26.076C24.2859 26.102 24.2814 26.1291 24.2815 26.1575C24.2817 26.2183 24.3517 26.2436 24.405 26.2141L24.6753 26.0647Z"/>
<path d="M25.1825 25.8987C25.1283 25.8007 25.0995 25.7031 25.0961 25.6059C25.0938 25.5082 25.1153 25.4201 25.1604 25.3419C25.2055 25.2636 25.2695 25.2016 25.3523 25.1558C25.4153 25.121 25.4832 25.1018 25.5558 25.0982C25.6199 25.094 25.686 25.0112 25.655 24.955L25.5463 24.7584C25.5196 24.7101 25.5371 24.6492 25.5855 24.6225L25.659 24.5819C25.7073 24.5552 25.7682 24.5727 25.7949 24.621L26.414 25.7413C26.4407 25.7897 26.4232 25.8505 26.3749 25.8772L26.2461 25.9484C26.2283 25.9582 26.2058 25.9518 26.196 25.9339C26.1781 25.9016 26.1194 25.9117 26.1047 25.9456C26.0955 25.967 26.0841 25.9881 26.0706 26.0088C26.0318 26.0683 25.9763 26.1181 25.9039 26.1581C25.8222 26.2032 25.736 26.2235 25.6451 26.2189C25.5541 26.2143 25.4679 26.185 25.3863 26.1311C25.3052 26.0753 25.2373 25.9979 25.1825 25.8987ZM25.9476 25.4804C25.9147 25.4209 25.875 25.3766 25.8284 25.3474C25.7812 25.3172 25.7317 25.3019 25.6797 25.3017C25.6271 25.3003 25.5781 25.3121 25.5326 25.3373C25.4871 25.3624 25.4512 25.3967 25.4249 25.4402C25.3987 25.4836 25.3852 25.5337 25.3846 25.5905C25.3845 25.6454 25.4005 25.702 25.4328 25.7603C25.465 25.8187 25.5051 25.8636 25.5529 25.895C25.6013 25.9247 25.6512 25.9405 25.7026 25.9426C25.7552 25.944 25.8036 25.9324 25.848 25.9079C25.8935 25.8828 25.9299 25.8481 25.9574 25.804C25.9841 25.7588 25.9976 25.7087 25.9977 25.6538C25.9972 25.5977 25.9805 25.5399 25.9476 25.4804Z"/>
<path d="M26.8203 24.4998C26.7355 24.4743 26.7232 24.3593 26.8007 24.3165L26.8656 24.2806C26.8892 24.2676 26.9171 24.2646 26.943 24.2725L27.4077 24.4132C27.4596 24.4289 27.4895 24.4831 27.4752 24.5353L27.3471 25.0037C27.34 25.0297 27.3226 25.0518 27.299 25.0649L27.2341 25.1007C27.1566 25.1436 27.0658 25.072 27.0893 24.9866L27.1668 24.7059C27.1812 24.6536 27.1512 24.5992 27.0992 24.5836L26.8203 24.4998Z"/>
<path d="M27.8744 24.1276C27.8301 24.1521 27.7859 24.159 27.7419 24.1483C27.6984 24.1357 27.6654 24.1091 27.6428 24.0682C27.6202 24.0274 27.6155 23.9858 27.6287 23.9435C27.6424 23.8993 27.6714 23.865 27.7158 23.8405C27.759 23.8166 27.8023 23.811 27.8458 23.8235C27.8886 23.8349 27.9213 23.861 27.9439 23.9018C27.9665 23.9427 27.9715 23.9848 27.959 24.0283C27.9458 24.0706 27.9176 24.1037 27.8744 24.1276ZM28.1519 24.5592C28.2143 24.5247 28.2918 24.5648 28.2997 24.6357L28.3433 25.0298C28.3475 25.0673 28.3286 25.1037 28.2956 25.1219C28.2429 25.151 28.1769 25.1236 28.1604 25.0657L28.0564 24.7005C28.0436 24.6558 28.0634 24.6081 28.1042 24.5856L28.1519 24.5592Z"/>
<path d="M28.2276 23.6262C28.1775 23.6539 28.113 23.6342 28.0982 23.579C28.0758 23.4953 28.0795 23.4156 28.1091 23.3398C28.1506 23.233 28.2339 23.1452 28.3587 23.0761C28.4439 23.0291 28.5252 23.0039 28.6027 23.0007C28.6795 22.9964 28.7472 23.0115 28.806 23.0461C28.8652 23.0788 28.9126 23.1273 28.948 23.1915C28.9887 23.265 29.0039 23.3381 28.9938 23.4107C28.9844 23.48 28.959 23.5377 28.9178 23.5838C28.9162 23.5856 28.9159 23.5881 28.917 23.5902C28.9182 23.5923 28.9206 23.5934 28.9229 23.5929C29.0007 23.5776 29.0725 23.5862 29.1384 23.6187C29.2066 23.6511 29.2639 23.7093 29.3103 23.7933C29.349 23.8633 29.3672 23.9348 29.3648 24.0077C29.3637 24.08 29.3403 24.1493 29.2946 24.2156C29.2496 24.2801 29.1833 24.3366 29.0957 24.3849C28.9639 24.4578 28.8381 24.4839 28.7185 24.4632C28.6284 24.4475 28.5505 24.4018 28.485 24.3258C28.448 24.2829 28.4659 24.2189 28.5154 24.1915L28.5787 24.1565C28.6257 24.1306 28.683 24.1494 28.7258 24.1817C28.7471 24.1978 28.7709 24.2094 28.797 24.2164C28.853 24.2296 28.9131 24.2185 28.9773 24.183C29.0368 24.1501 29.0733 24.1087 29.0868 24.0586C29.1007 24.0067 29.0932 23.9545 29.0642 23.9019C29.0255 23.8319 28.9756 23.794 28.9145 23.7882C28.8533 23.7823 28.7761 23.8052 28.6828 23.8568C28.6547 23.8723 28.6194 23.8621 28.6039 23.8341L28.5488 23.7343C28.5333 23.7063 28.5435 23.671 28.5715 23.6555C28.7372 23.5639 28.7894 23.4627 28.7282 23.3518C28.7004 23.3017 28.6637 23.271 28.6178 23.2597C28.5732 23.2478 28.5229 23.2574 28.4668 23.2883C28.412 23.3186 28.3778 23.3573 28.3642 23.4045C28.3592 23.4217 28.3567 23.4392 28.3566 23.4569C28.3563 23.5082 28.3412 23.5634 28.2964 23.5882L28.2276 23.6262Z"/>
</mask>
<path d="M16.2547 30.1837C16.327 30.1437 16.3987 30.1232 16.4697 30.122C16.4959 30.1212 16.5211 30.1224 16.5455 30.1258C16.582 30.1309 16.6197 30.0876 16.6019 30.0554C16.5919 30.0372 16.5984 30.0143 16.6166 30.0043L16.743 29.9344C16.7913 29.9077 16.8522 29.9252 16.8789 29.9736L17.3703 30.8628C17.42 30.9527 17.4461 31.0426 17.4486 31.1326C17.4518 31.2238 17.4285 31.3098 17.3787 31.3906C17.3295 31.4726 17.2536 31.542 17.1509 31.5987C17.0132 31.6748 16.8823 31.7053 16.7581 31.6901C16.6725 31.6791 16.5991 31.6467 16.5377 31.5928C16.4931 31.5536 16.5095 31.4848 16.5615 31.4561L16.6418 31.4117C16.6807 31.3902 16.7284 31.3998 16.7692 31.4175C16.793 31.4279 16.8192 31.4336 16.8479 31.4349C16.9059 31.4379 16.9652 31.4226 17.0259 31.3891C17.0971 31.3497 17.1429 31.2962 17.1634 31.2285C17.1845 31.162 17.1712 31.0856 17.1235 30.9992C17.098 30.9531 17.0126 30.9649 16.9866 31.0107C16.982 31.0188 16.9771 31.0269 16.9719 31.035C16.9338 31.0957 16.8792 31.1456 16.808 31.185C16.7263 31.2301 16.64 31.2504 16.5491 31.2458C16.4582 31.2412 16.372 31.2119 16.2904 31.158C16.2093 31.1023 16.1414 31.0248 16.0865 30.9256C16.0324 30.8276 16.0036 30.73 16.0002 30.6329C15.9979 30.5351 16.0188 30.4474 16.0627 30.3698C16.1078 30.2915 16.1718 30.2295 16.2547 30.1837ZM16.8517 30.5073C16.8188 30.4478 16.7791 30.4035 16.7325 30.3744C16.6853 30.3441 16.6357 30.3288 16.5838 30.3286C16.5312 30.3272 16.4822 30.3391 16.4367 30.3642C16.3912 30.3894 16.3553 30.4237 16.329 30.4671C16.3028 30.5106 16.2893 30.5607 16.2887 30.6174C16.2885 30.6723 16.3046 30.7289 16.3369 30.7873C16.3691 30.8456 16.4092 30.8905 16.457 30.922C16.5054 30.9516 16.5553 30.9674 16.6067 30.9695C16.6592 30.9709 16.7077 30.9594 16.752 30.9349C16.7976 30.9097 16.834 30.8751 16.8615 30.831C16.8882 30.7857 16.9017 30.7356 16.9018 30.6807C16.9013 30.6246 16.8846 30.5668 16.8517 30.5073Z" fill="#EA4967"/>
<path d="M18.2277 29.7194C18.2316 29.7265 18.2354 29.7334 18.2389 29.7403C18.2613 29.7838 18.2416 29.8351 18.1988 29.8588L17.6591 30.157C17.6079 30.1853 17.5905 30.254 17.637 30.2895C17.6648 30.3108 17.6953 30.3255 17.7285 30.3335C17.7936 30.3493 17.8576 30.3398 17.9207 30.305C17.9917 30.2657 18.0336 30.2115 18.0463 30.1423C18.0532 30.1048 18.0713 30.0687 18.1046 30.0502L18.1968 29.9993C18.2555 29.9669 18.3291 30.0009 18.3259 30.0678C18.323 30.1307 18.308 30.1929 18.2811 30.2543C18.2347 30.3577 18.1537 30.4413 18.0381 30.5052C17.9448 30.5568 17.8495 30.5828 17.7522 30.5832C17.6555 30.5818 17.5651 30.5548 17.4812 30.5022C17.3984 30.4489 17.3296 30.3727 17.2748 30.2735C17.2194 30.1731 17.1911 30.0737 17.19 29.9753C17.1889 29.8769 17.2139 29.7869 17.2648 29.7054C17.3158 29.624 17.3891 29.5568 17.4848 29.5039C17.577 29.4529 17.6702 29.4273 17.7645 29.427C17.8599 29.4261 17.9478 29.4514 18.0281 29.503C18.1089 29.5527 18.1755 29.6249 18.2277 29.7194ZM17.8461 29.8389C17.895 29.8119 17.9139 29.7465 17.8687 29.7135C17.8439 29.6953 17.8155 29.6831 17.7837 29.6769C17.7181 29.6629 17.6532 29.6736 17.589 29.7091C17.5283 29.7426 17.4873 29.7897 17.4659 29.8502C17.4567 29.8762 17.4522 29.9034 17.4523 29.9317C17.4525 29.9925 17.5225 30.0178 17.5758 29.9883L17.8461 29.8389Z" fill="#EA4967"/>
<path d="M18.6343 29.1519C18.586 29.1786 18.5685 29.2395 18.5952 29.2878L18.8061 29.6694C18.8241 29.7021 18.8449 29.7218 18.8685 29.7286C18.8926 29.7336 18.9233 29.7258 18.9606 29.7051L18.9869 29.6906C19.0352 29.6639 19.0961 29.6814 19.1228 29.7298L19.1402 29.7613C19.1669 29.8096 19.1494 29.8705 19.101 29.8972L19.0345 29.9339C18.828 30.0481 18.6692 30.0048 18.5583 29.8041L18.3319 29.3945C18.3143 29.3626 18.2741 29.351 18.2422 29.3686C18.2103 29.3863 18.1702 29.3747 18.1525 29.3428L18.1051 29.257C18.0875 29.2251 18.0991 29.185 18.131 29.1673C18.1629 29.1497 18.1745 29.1095 18.1568 29.0776L18.1046 28.9831C18.0779 28.9348 18.0954 28.8739 18.1437 28.8472L18.2155 28.8076C18.2638 28.7808 18.3247 28.7984 18.3514 28.8467L18.3872 28.9115C18.4139 28.9598 18.4747 28.9773 18.5231 28.9506L18.5651 28.9274C18.6134 28.9007 18.6743 28.9182 18.701 28.9666L18.7155 28.9928C18.7422 29.0412 18.7247 29.102 18.6763 29.1287L18.6343 29.1519Z" fill="#EA4967"/>
<path d="M20.3983 29.1803C20.3716 29.195 20.3397 29.1968 20.3116 29.1851L20.0629 29.0819C19.9755 29.0457 19.8913 29.1398 19.937 29.2227L19.9786 29.2979C20.0053 29.3462 19.9878 29.4071 19.9395 29.4338L19.8695 29.4725C19.8211 29.4992 19.7603 29.4817 19.7336 29.4333L19.1144 28.3131C19.0877 28.2647 19.1052 28.2039 19.1536 28.1772L19.2236 28.1385C19.2719 28.1117 19.3328 28.1293 19.3595 28.1776L19.5793 28.5754C19.6252 28.6584 19.75 28.637 19.7655 28.5434L19.8087 28.2835C19.8137 28.2533 19.8322 28.2271 19.859 28.2123L19.9419 28.1665C20.0172 28.1249 20.1064 28.1914 20.088 28.2754L19.996 28.6959C19.9852 28.7453 20.0128 28.7949 20.0605 28.8117L20.4642 28.9535C20.5457 28.9822 20.555 29.0936 20.4794 29.1354L20.3983 29.1803Z" fill="#EA4967"/>
<path d="M20.7979 27.6752C20.9134 27.6113 21.0271 27.5965 21.1389 27.6307C21.2501 27.6637 21.3418 27.7455 21.414 27.8762L21.68 28.3576C21.7068 28.4059 21.6892 28.4668 21.6409 28.4935L21.5709 28.5322C21.5225 28.5589 21.4617 28.5414 21.435 28.493L21.1873 28.0449C21.1448 27.9679 21.0929 27.9196 21.0319 27.9001C20.9701 27.8793 20.906 27.8873 20.8395 27.9241C20.7718 27.9615 20.7297 28.0122 20.7133 28.0761C20.6973 28.1382 20.7106 28.2078 20.7532 28.2848L21.0009 28.733C21.0276 28.7813 21.0101 28.8421 20.9617 28.8689L20.8917 28.9075C20.8434 28.9343 20.7825 28.9167 20.7558 28.8684L20.3166 28.0737C20.2899 28.0253 20.3074 27.9645 20.3558 27.9378L20.4824 27.8678C20.4995 27.8584 20.5209 27.8645 20.5303 27.8816C20.5466 27.911 20.5956 27.904 20.6096 27.8735C20.6206 27.8497 20.6341 27.8268 20.6502 27.8048C20.688 27.7519 20.7372 27.7087 20.7979 27.6752Z" fill="#EA4967"/>
<path d="M22.4008 28.0941C22.3074 28.1457 22.2121 28.1717 22.1149 28.1721C22.017 28.1714 21.9254 28.145 21.8403 28.0931C21.7564 28.0404 21.687 27.9645 21.6322 27.8653C21.5774 27.7661 21.5506 27.6667 21.5519 27.567C21.5543 27.4666 21.5822 27.375 21.6354 27.2923C21.6881 27.2083 21.7611 27.1406 21.8544 27.089C21.9478 27.0374 22.044 27.0116 22.1431 27.0117C22.2415 27.0106 22.3333 27.0361 22.4184 27.0881C22.5046 27.1394 22.5752 27.2147 22.63 27.3139C22.6848 27.4131 22.7104 27.5132 22.7068 27.6142C22.7044 27.7146 22.6763 27.807 22.6225 27.8916C22.5692 27.9744 22.4953 28.0419 22.4008 28.0941ZM22.2828 27.8805C22.3271 27.856 22.3627 27.8226 22.3896 27.7804C22.417 27.7363 22.4305 27.6862 22.43 27.6301C22.4295 27.574 22.4121 27.515 22.3779 27.4532C22.327 27.361 22.2634 27.304 22.1873 27.282C22.1118 27.2583 22.039 27.2658 21.9689 27.3045C21.8989 27.3432 21.8539 27.4008 21.8337 27.4774C21.8142 27.5523 21.8298 27.6358 21.8808 27.7279C21.9317 27.8201 21.9938 27.8787 22.0671 27.9038C22.1408 27.927 22.2127 27.9192 22.2828 27.8805Z" fill="#EA4967"/>
<path d="M23.0259 26.7249C22.9775 26.7516 22.96 26.8125 22.9867 26.8608L23.1976 27.2424C23.2157 27.2751 23.2365 27.2948 23.26 27.3016C23.2841 27.3066 23.3148 27.2987 23.3522 27.2781L23.3784 27.2636C23.4268 27.2369 23.4876 27.2544 23.5143 27.3027L23.5317 27.3343C23.5584 27.3826 23.5409 27.4434 23.4926 27.4701L23.4261 27.5069C23.2195 27.6211 23.0608 27.5778 22.9498 27.3771L22.7235 26.9675C22.7058 26.9355 22.6657 26.924 22.6338 26.9416C22.6019 26.9592 22.5617 26.9477 22.5441 26.9158L22.4967 26.83C22.4791 26.7981 22.4906 26.7579 22.5225 26.7403C22.5544 26.7227 22.566 26.6825 22.5484 26.6506L22.4961 26.5561C22.4694 26.5078 22.4869 26.4469 22.5353 26.4202L22.607 26.3805C22.6554 26.3538 22.7162 26.3714 22.7429 26.4197L22.7787 26.4845C22.8054 26.5328 22.8663 26.5503 22.9146 26.5236L22.9566 26.5004C23.005 26.4737 23.0658 26.4912 23.0925 26.5395L23.107 26.5658C23.1338 26.6141 23.1162 26.675 23.0679 26.7017L23.0259 26.7249Z" fill="#EA4967"/>
<path d="M23.7045 26.3499C23.6562 26.3766 23.6387 26.4374 23.6654 26.4857L23.8763 26.8673C23.8943 26.9 23.9151 26.9198 23.9387 26.9265C23.9628 26.9315 23.9935 26.9237 24.0308 26.903L24.0571 26.8885C24.1054 26.8618 24.1663 26.8793 24.193 26.9277L24.2104 26.9592C24.2371 27.0075 24.2196 27.0684 24.1712 27.0951L24.1047 27.1318C23.8982 27.246 23.7394 27.2027 23.6285 27.002L23.4021 26.5924C23.3845 26.5605 23.3443 26.5489 23.3124 26.5666C23.2805 26.5842 23.2404 26.5726 23.2227 26.5407L23.1753 26.4549C23.1577 26.423 23.1693 26.3829 23.2012 26.3652C23.2331 26.3476 23.2446 26.3075 23.227 26.2756L23.1748 26.181C23.1481 26.1327 23.1656 26.0719 23.2139 26.0451L23.2857 26.0055C23.334 25.9788 23.3949 25.9963 23.4216 26.0446L23.4574 26.1094C23.4841 26.1577 23.5449 26.1753 23.5933 26.1485L23.6353 26.1253C23.6836 26.0986 23.7445 26.1161 23.7712 26.1645L23.7857 26.1907C23.8124 26.2391 23.7949 26.2999 23.7465 26.3266L23.7045 26.3499Z" fill="#EA4967"/>
<path d="M25.0569 25.9452C25.0608 25.9523 25.0646 25.9592 25.0681 25.9661C25.0905 26.0095 25.0708 26.0609 25.028 26.0846L24.4883 26.3828C24.4371 26.4111 24.4197 26.4797 24.4662 26.5153C24.494 26.5366 24.5245 26.5513 24.5577 26.5593C24.6228 26.5751 24.6868 26.5656 24.7499 26.5308C24.8209 26.4915 24.8628 26.4373 24.8755 26.3681C24.8824 26.3306 24.9005 26.2945 24.9338 26.276L25.026 26.2251C25.0847 26.1927 25.1583 26.2267 25.1551 26.2936C25.1522 26.3565 25.1372 26.4187 25.1103 26.4801C25.0639 26.5835 24.9829 26.6671 24.8673 26.7309C24.774 26.7825 24.6787 26.8086 24.5814 26.809C24.4847 26.8076 24.3943 26.7806 24.3104 26.728C24.2276 26.6747 24.1588 26.5984 24.104 26.4993C24.0486 26.3989 24.0203 26.2995 24.0192 26.2011C24.0181 26.1026 24.0431 26.0127 24.094 25.9312C24.145 25.8497 24.2183 25.7826 24.314 25.7297C24.4062 25.6787 24.4994 25.6531 24.5937 25.6528C24.6891 25.6518 24.777 25.6772 24.8573 25.7287C24.9381 25.7785 25.0047 25.8507 25.0569 25.9452ZM24.6753 26.0647C24.7242 26.0377 24.7431 25.9723 24.6979 25.9393C24.6731 25.9211 24.6447 25.9089 24.6129 25.9026C24.5473 25.8886 24.4824 25.8994 24.4182 25.9349C24.3575 25.9684 24.3165 26.0154 24.2951 26.076C24.2859 26.102 24.2814 26.1291 24.2815 26.1575C24.2817 26.2183 24.3517 26.2436 24.405 26.2141L24.6753 26.0647Z" fill="#EA4967"/>
<path d="M25.1825 25.8987C25.1283 25.8007 25.0995 25.7031 25.0961 25.6059C25.0938 25.5082 25.1153 25.4201 25.1604 25.3419C25.2055 25.2636 25.2695 25.2016 25.3523 25.1558C25.4153 25.121 25.4832 25.1018 25.5558 25.0982C25.6199 25.094 25.686 25.0112 25.655 24.955L25.5463 24.7584C25.5196 24.7101 25.5371 24.6492 25.5855 24.6225L25.659 24.5819C25.7073 24.5552 25.7682 24.5727 25.7949 24.621L26.414 25.7413C26.4407 25.7897 26.4232 25.8505 26.3749 25.8772L26.2461 25.9484C26.2283 25.9582 26.2058 25.9518 26.196 25.9339C26.1781 25.9016 26.1194 25.9117 26.1047 25.9456C26.0955 25.967 26.0841 25.9881 26.0706 26.0088C26.0318 26.0683 25.9763 26.1181 25.9039 26.1581C25.8222 26.2032 25.736 26.2235 25.6451 26.2189C25.5541 26.2143 25.4679 26.185 25.3863 26.1311C25.3052 26.0753 25.2373 25.9979 25.1825 25.8987ZM25.9476 25.4804C25.9147 25.4209 25.875 25.3766 25.8284 25.3474C25.7812 25.3172 25.7317 25.3019 25.6797 25.3017C25.6271 25.3003 25.5781 25.3121 25.5326 25.3373C25.4871 25.3624 25.4512 25.3967 25.4249 25.4402C25.3987 25.4836 25.3852 25.5337 25.3846 25.5905C25.3845 25.6454 25.4005 25.702 25.4328 25.7603C25.465 25.8187 25.5051 25.8636 25.5529 25.895C25.6013 25.9247 25.6512 25.9405 25.7026 25.9426C25.7552 25.944 25.8036 25.9324 25.848 25.9079C25.8935 25.8828 25.9299 25.8481 25.9574 25.804C25.9841 25.7588 25.9976 25.7087 25.9977 25.6538C25.9972 25.5977 25.9805 25.5399 25.9476 25.4804Z" fill="#EA4967"/>
<path d="M26.8203 24.4998C26.7355 24.4743 26.7232 24.3593 26.8007 24.3165L26.8656 24.2806C26.8892 24.2676 26.9171 24.2646 26.943 24.2725L27.4077 24.4132C27.4596 24.4289 27.4895 24.4831 27.4752 24.5353L27.3471 25.0037C27.34 25.0297 27.3226 25.0518 27.299 25.0649L27.2341 25.1007C27.1566 25.1436 27.0658 25.072 27.0893 24.9866L27.1668 24.7059C27.1812 24.6536 27.1512 24.5992 27.0992 24.5836L26.8203 24.4998Z" fill="#EA4967"/>
<path d="M27.8744 24.1276C27.8301 24.1521 27.7859 24.159 27.7419 24.1483C27.6984 24.1357 27.6654 24.1091 27.6428 24.0682C27.6202 24.0274 27.6155 23.9858 27.6287 23.9435C27.6424 23.8993 27.6714 23.865 27.7158 23.8405C27.759 23.8166 27.8023 23.811 27.8458 23.8235C27.8886 23.8349 27.9213 23.861 27.9439 23.9018C27.9665 23.9427 27.9715 23.9848 27.959 24.0283C27.9458 24.0706 27.9176 24.1037 27.8744 24.1276ZM28.1519 24.5592C28.2143 24.5247 28.2918 24.5648 28.2997 24.6357L28.3433 25.0298C28.3475 25.0673 28.3286 25.1037 28.2956 25.1219C28.2429 25.151 28.1769 25.1236 28.1604 25.0657L28.0564 24.7005C28.0436 24.6558 28.0634 24.6081 28.1042 24.5856L28.1519 24.5592Z" fill="#EA4967"/>
<path d="M28.2276 23.6262C28.1775 23.6539 28.113 23.6342 28.0982 23.579C28.0758 23.4953 28.0795 23.4156 28.1091 23.3398C28.1506 23.233 28.2339 23.1452 28.3587 23.0761C28.4439 23.0291 28.5252 23.0039 28.6027 23.0007C28.6795 22.9964 28.7472 23.0115 28.806 23.0461C28.8652 23.0788 28.9126 23.1273 28.948 23.1915C28.9887 23.265 29.0039 23.3381 28.9938 23.4107C28.9844 23.48 28.959 23.5377 28.9178 23.5838C28.9162 23.5856 28.9159 23.5881 28.917 23.5902C28.9182 23.5923 28.9206 23.5934 28.9229 23.5929C29.0007 23.5776 29.0725 23.5862 29.1384 23.6187C29.2066 23.6511 29.2639 23.7093 29.3103 23.7933C29.349 23.8633 29.3672 23.9348 29.3648 24.0077C29.3637 24.08 29.3403 24.1493 29.2946 24.2156C29.2496 24.2801 29.1833 24.3366 29.0957 24.3849C28.9639 24.4578 28.8381 24.4839 28.7185 24.4632C28.6284 24.4475 28.5505 24.4018 28.485 24.3258C28.448 24.2829 28.4659 24.2189 28.5154 24.1915L28.5787 24.1565C28.6257 24.1306 28.683 24.1494 28.7258 24.1817C28.7471 24.1978 28.7709 24.2094 28.797 24.2164C28.853 24.2296 28.9131 24.2185 28.9773 24.183C29.0368 24.1501 29.0733 24.1087 29.0868 24.0586C29.1007 24.0067 29.0932 23.9545 29.0642 23.9019C29.0255 23.8319 28.9756 23.794 28.9145 23.7882C28.8533 23.7823 28.7761 23.8052 28.6828 23.8568C28.6547 23.8723 28.6194 23.8621 28.6039 23.8341L28.5488 23.7343C28.5333 23.7063 28.5435 23.671 28.5715 23.6555C28.7372 23.5639 28.7894 23.4627 28.7282 23.3518C28.7004 23.3017 28.6637 23.271 28.6178 23.2597C28.5732 23.2478 28.5229 23.2574 28.4668 23.2883C28.412 23.3186 28.3778 23.3573 28.3642 23.4045C28.3592 23.4217 28.3567 23.4392 28.3566 23.4569C28.3563 23.5082 28.3412 23.5634 28.2964 23.5882L28.2276 23.6262Z" fill="#EA4967"/>
<path d="M16.2547 30.1837C16.327 30.1437 16.3987 30.1232 16.4697 30.122C16.4959 30.1212 16.5211 30.1224 16.5455 30.1258C16.582 30.1309 16.6197 30.0876 16.6019 30.0554C16.5919 30.0372 16.5984 30.0143 16.6166 30.0043L16.743 29.9344C16.7913 29.9077 16.8522 29.9252 16.8789 29.9736L17.3703 30.8628C17.42 30.9527 17.4461 31.0426 17.4486 31.1326C17.4518 31.2238 17.4285 31.3098 17.3787 31.3906C17.3295 31.4726 17.2536 31.542 17.1509 31.5987C17.0132 31.6748 16.8823 31.7053 16.7581 31.6901C16.6725 31.6791 16.5991 31.6467 16.5377 31.5928C16.4931 31.5536 16.5095 31.4848 16.5615 31.4561L16.6418 31.4117C16.6807 31.3902 16.7284 31.3998 16.7692 31.4175C16.793 31.4279 16.8192 31.4336 16.8479 31.4349C16.9059 31.4379 16.9652 31.4226 17.0259 31.3891C17.0971 31.3497 17.1429 31.2962 17.1634 31.2285C17.1845 31.162 17.1712 31.0856 17.1235 30.9992C17.098 30.9531 17.0126 30.9649 16.9866 31.0107C16.982 31.0188 16.9771 31.0269 16.9719 31.035C16.9338 31.0957 16.8792 31.1456 16.808 31.185C16.7263 31.2301 16.64 31.2504 16.5491 31.2458C16.4582 31.2412 16.372 31.2119 16.2904 31.158C16.2093 31.1023 16.1414 31.0248 16.0865 30.9256C16.0324 30.8276 16.0036 30.73 16.0002 30.6329C15.9979 30.5351 16.0188 30.4474 16.0627 30.3698C16.1078 30.2915 16.1718 30.2295 16.2547 30.1837ZM16.8517 30.5073C16.8188 30.4478 16.7791 30.4035 16.7325 30.3744C16.6853 30.3441 16.6357 30.3288 16.5838 30.3286C16.5312 30.3272 16.4822 30.3391 16.4367 30.3642C16.3912 30.3894 16.3553 30.4237 16.329 30.4671C16.3028 30.5106 16.2893 30.5607 16.2887 30.6174C16.2885 30.6723 16.3046 30.7289 16.3369 30.7873C16.3691 30.8456 16.4092 30.8905 16.457 30.922C16.5054 30.9516 16.5553 30.9674 16.6067 30.9695C16.6592 30.9709 16.7077 30.9594 16.752 30.9349C16.7976 30.9097 16.834 30.8751 16.8615 30.831C16.8882 30.7857 16.9017 30.7356 16.9018 30.6807C16.9013 30.6246 16.8846 30.5668 16.8517 30.5073Z" stroke="#0D0D0D" stroke-width="0.2" mask="url(#path-3-outside-2_27_4)"/>
<path d="M18.2277 29.7194C18.2316 29.7265 18.2354 29.7334 18.2389 29.7403C18.2613 29.7838 18.2416 29.8351 18.1988 29.8588L17.6591 30.157C17.6079 30.1853 17.5905 30.254 17.637 30.2895C17.6648 30.3108 17.6953 30.3255 17.7285 30.3335C17.7936 30.3493 17.8576 30.3398 17.9207 30.305C17.9917 30.2657 18.0336 30.2115 18.0463 30.1423C18.0532 30.1048 18.0713 30.0687 18.1046 30.0502L18.1968 29.9993C18.2555 29.9669 18.3291 30.0009 18.3259 30.0678C18.323 30.1307 18.308 30.1929 18.2811 30.2543C18.2347 30.3577 18.1537 30.4413 18.0381 30.5052C17.9448 30.5568 17.8495 30.5828 17.7522 30.5832C17.6555 30.5818 17.5651 30.5548 17.4812 30.5022C17.3984 30.4489 17.3296 30.3727 17.2748 30.2735C17.2194 30.1731 17.1911 30.0737 17.19 29.9753C17.1889 29.8769 17.2139 29.7869 17.2648 29.7054C17.3158 29.624 17.3891 29.5568 17.4848 29.5039C17.577 29.4529 17.6702 29.4273 17.7645 29.427C17.8599 29.4261 17.9478 29.4514 18.0281 29.503C18.1089 29.5527 18.1755 29.6249 18.2277 29.7194ZM17.8461 29.8389C17.895 29.8119 17.9139 29.7465 17.8687 29.7135C17.8439 29.6953 17.8155 29.6831 17.7837 29.6769C17.7181 29.6629 17.6532 29.6736 17.589 29.7091C17.5283 29.7426 17.4873 29.7897 17.4659 29.8502C17.4567 29.8762 17.4522 29.9034 17.4523 29.9317C17.4525 29.9925 17.5225 30.0178 17.5758 29.9883L17.8461 29.8389Z" stroke="#0D0D0D" stroke-width="0.2" mask="url(#path-3-outside-2_27_4)"/>
<path d="M18.6343 29.1519C18.586 29.1786 18.5685 29.2395 18.5952 29.2878L18.8061 29.6694C18.8241 29.7021 18.8449 29.7218 18.8685 29.7286C18.8926 29.7336 18.9233 29.7258 18.9606 29.7051L18.9869 29.6906C19.0352 29.6639 19.0961 29.6814 19.1228 29.7298L19.1402 29.7613C19.1669 29.8096 19.1494 29.8705 19.101 29.8972L19.0345 29.9339C18.828 30.0481 18.6692 30.0048 18.5583 29.8041L18.3319 29.3945C18.3143 29.3626 18.2741 29.351 18.2422 29.3686C18.2103 29.3863 18.1702 29.3747 18.1525 29.3428L18.1051 29.257C18.0875 29.2251 18.0991 29.185 18.131 29.1673C18.1629 29.1497 18.1745 29.1095 18.1568 29.0776L18.1046 28.9831C18.0779 28.9348 18.0954 28.8739 18.1437 28.8472L18.2155 28.8076C18.2638 28.7808 18.3247 28.7984 18.3514 28.8467L18.3872 28.9115C18.4139 28.9598 18.4747 28.9773 18.5231 28.9506L18.5651 28.9274C18.6134 28.9007 18.6743 28.9182 18.701 28.9666L18.7155 28.9928C18.7422 29.0412 18.7247 29.102 18.6763 29.1287L18.6343 29.1519Z" stroke="#0D0D0D" stroke-width="0.2" mask="url(#path-3-outside-2_27_4)"/>
<path d="M20.3983 29.1803C20.3716 29.195 20.3397 29.1968 20.3116 29.1851L20.0629 29.0819C19.9755 29.0457 19.8913 29.1398 19.937 29.2227L19.9786 29.2979C20.0053 29.3462 19.9878 29.4071 19.9395 29.4338L19.8695 29.4725C19.8211 29.4992 19.7603 29.4817 19.7336 29.4333L19.1144 28.3131C19.0877 28.2647 19.1052 28.2039 19.1536 28.1772L19.2236 28.1385C19.2719 28.1117 19.3328 28.1293 19.3595 28.1776L19.5793 28.5754C19.6252 28.6584 19.75 28.637 19.7655 28.5434L19.8087 28.2835C19.8137 28.2533 19.8322 28.2271 19.859 28.2123L19.9419 28.1665C20.0172 28.1249 20.1064 28.1914 20.088 28.2754L19.996 28.6959C19.9852 28.7453 20.0128 28.7949 20.0605 28.8117L20.4642 28.9535C20.5457 28.9822 20.555 29.0936 20.4794 29.1354L20.3983 29.1803Z" stroke="#0D0D0D" stroke-width="0.2" mask="url(#path-3-outside-2_27_4)"/>
<path d="M20.7979 27.6752C20.9134 27.6113 21.0271 27.5965 21.1389 27.6307C21.2501 27.6637 21.3418 27.7455 21.414 27.8762L21.68 28.3576C21.7068 28.4059 21.6892 28.4668 21.6409 28.4935L21.5709 28.5322C21.5225 28.5589 21.4617 28.5414 21.435 28.493L21.1873 28.0449C21.1448 27.9679 21.0929 27.9196 21.0319 27.9001C20.9701 27.8793 20.906 27.8873 20.8395 27.9241C20.7718 27.9615 20.7297 28.0122 20.7133 28.0761C20.6973 28.1382 20.7106 28.2078 20.7532 28.2848L21.0009 28.733C21.0276 28.7813 21.0101 28.8421 20.9617 28.8689L20.8917 28.9075C20.8434 28.9343 20.7825 28.9167 20.7558 28.8684L20.3166 28.0737C20.2899 28.0253 20.3074 27.9645 20.3558 27.9378L20.4824 27.8678C20.4995 27.8584 20.5209 27.8645 20.5303 27.8816C20.5466 27.911 20.5956 27.904 20.6096 27.8735C20.6206 27.8497 20.6341 27.8268 20.6502 27.8048C20.688 27.7519 20.7372 27.7087 20.7979 27.6752Z" stroke="#0D0D0D" stroke-width="0.2" mask="url(#path-3-outside-2_27_4)"/>
<path d="M22.4008 28.0941C22.3074 28.1457 22.2121 28.1717 22.1149 28.1721C22.017 28.1714 21.9254 28.145 21.8403 28.0931C21.7564 28.0404 21.687 27.9645 21.6322 27.8653C21.5774 27.7661 21.5506 27.6667 21.5519 27.567C21.5543 27.4666 21.5822 27.375 21.6354 27.2923C21.6881 27.2083 21.7611 27.1406 21.8544 27.089C21.9478 27.0374 22.044 27.0116 22.1431 27.0117C22.2415 27.0106 22.3333 27.0361 22.4184 27.0881C22.5046 27.1394 22.5752 27.2147 22.63 27.3139C22.6848 27.4131 22.7104 27.5132 22.7068 27.6142C22.7044 27.7146 22.6763 27.807 22.6225 27.8916C22.5692 27.9744 22.4953 28.0419 22.4008 28.0941ZM22.2828 27.8805C22.3271 27.856 22.3627 27.8226 22.3896 27.7804C22.417 27.7363 22.4305 27.6862 22.43 27.6301C22.4295 27.574 22.4121 27.515 22.3779 27.4532C22.327 27.361 22.2634 27.304 22.1873 27.282C22.1118 27.2583 22.039 27.2658 21.9689 27.3045C21.8989 27.3432 21.8539 27.4008 21.8337 27.4774C21.8142 27.5523 21.8298 27.6358 21.8808 27.7279C21.9317 27.8201 21.9938 27.8787 22.0671 27.9038C22.1408 27.927 22.2127 27.9192 22.2828 27.8805Z" stroke="#0D0D0D" stroke-width="0.2" mask="url(#path-3-outside-2_27_4)"/>
<path d="M23.0259 26.7249C22.9775 26.7516 22.96 26.8125 22.9867 26.8608L23.1976 27.2424C23.2157 27.2751 23.2365 27.2948 23.26 27.3016C23.2841 27.3066 23.3148 27.2987 23.3522 27.2781L23.3784 27.2636C23.4268 27.2369 23.4876 27.2544 23.5143 27.3027L23.5317 27.3343C23.5584 27.3826 23.5409 27.4434 23.4926 27.4701L23.4261 27.5069C23.2195 27.6211 23.0608 27.5778 22.9498 27.3771L22.7235 26.9675C22.7058 26.9355 22.6657 26.924 22.6338 26.9416C22.6019 26.9592 22.5617 26.9477 22.5441 26.9158L22.4967 26.83C22.4791 26.7981 22.4906 26.7579 22.5225 26.7403C22.5544 26.7227 22.566 26.6825 22.5484 26.6506L22.4961 26.5561C22.4694 26.5078 22.4869 26.4469 22.5353 26.4202L22.607 26.3805C22.6554 26.3538 22.7162 26.3714 22.7429 26.4197L22.7787 26.4845C22.8054 26.5328 22.8663 26.5503 22.9146 26.5236L22.9566 26.5004C23.005 26.4737 23.0658 26.4912 23.0925 26.5395L23.107 26.5658C23.1338 26.6141 23.1162 26.675 23.0679 26.7017L23.0259 26.7249Z" stroke="#0D0D0D" stroke-width="0.2" mask="url(#path-3-outside-2_27_4)"/>
<path d="M23.7045 26.3499C23.6562 26.3766 23.6387 26.4374 23.6654 26.4857L23.8763 26.8673C23.8943 26.9 23.9151 26.9198 23.9387 26.9265C23.9628 26.9315 23.9935 26.9237 24.0308 26.903L24.0571 26.8885C24.1054 26.8618 24.1663 26.8793 24.193 26.9277L24.2104 26.9592C24.2371 27.0075 24.2196 27.0684 24.1712 27.0951L24.1047 27.1318C23.8982 27.246 23.7394 27.2027 23.6285 27.002L23.4021 26.5924C23.3845 26.5605 23.3443 26.5489 23.3124 26.5666C23.2805 26.5842 23.2404 26.5726 23.2227 26.5407L23.1753 26.4549C23.1577 26.423 23.1693 26.3829 23.2012 26.3652C23.2331 26.3476 23.2446 26.3075 23.227 26.2756L23.1748 26.181C23.1481 26.1327 23.1656 26.0719 23.2139 26.0451L23.2857 26.0055C23.334 25.9788 23.3949 25.9963 23.4216 26.0446L23.4574 26.1094C23.4841 26.1577 23.5449 26.1753 23.5933 26.1485L23.6353 26.1253C23.6836 26.0986 23.7445 26.1161 23.7712 26.1645L23.7857 26.1907C23.8124 26.2391 23.7949 26.2999 23.7465 26.3266L23.7045 26.3499Z" stroke="#0D0D0D" stroke-width="0.2" mask="url(#path-3-outside-2_27_4)"/>
<path d="M25.0569 25.9452C25.0608 25.9523 25.0646 25.9592 25.0681 25.9661C25.0905 26.0095 25.0708 26.0609 25.028 26.0846L24.4883 26.3828C24.4371 26.4111 24.4197 26.4797 24.4662 26.5153C24.494 26.5366 24.5245 26.5513 24.5577 26.5593C24.6228 26.5751 24.6868 26.5656 24.7499 26.5308C24.8209 26.4915 24.8628 26.4373 24.8755 26.3681C24.8824 26.3306 24.9005 26.2945 24.9338 26.276L25.026 26.2251C25.0847 26.1927 25.1583 26.2267 25.1551 26.2936C25.1522 26.3565 25.1372 26.4187 25.1103 26.4801C25.0639 26.5835 24.9829 26.6671 24.8673 26.7309C24.774 26.7825 24.6787 26.8086 24.5814 26.809C24.4847 26.8076 24.3943 26.7806 24.3104 26.728C24.2276 26.6747 24.1588 26.5984 24.104 26.4993C24.0486 26.3989 24.0203 26.2995 24.0192 26.2011C24.0181 26.1026 24.0431 26.0127 24.094 25.9312C24.145 25.8497 24.2183 25.7826 24.314 25.7297C24.4062 25.6787 24.4994 25.6531 24.5937 25.6528C24.6891 25.6518 24.777 25.6772 24.8573 25.7287C24.9381 25.7785 25.0047 25.8507 25.0569 25.9452ZM24.6753 26.0647C24.7242 26.0377 24.7431 25.9723 24.6979 25.9393C24.6731 25.9211 24.6447 25.9089 24.6129 25.9026C24.5473 25.8886 24.4824 25.8994 24.4182 25.9349C24.3575 25.9684 24.3165 26.0154 24.2951 26.076C24.2859 26.102 24.2814 26.1291 24.2815 26.1575C24.2817 26.2183 24.3517 26.2436 24.405 26.2141L24.6753 26.0647Z" stroke="#0D0D0D" stroke-width="0.2" mask="url(#path-3-outside-2_27_4)"/>
<path d="M25.1825 25.8987C25.1283 25.8007 25.0995 25.7031 25.0961 25.6059C25.0938 25.5082 25.1153 25.4201 25.1604 25.3419C25.2055 25.2636 25.2695 25.2016 25.3523 25.1558C25.4153 25.121 25.4832 25.1018 25.5558 25.0982C25.6199 25.094 25.686 25.0112 25.655 24.955L25.5463 24.7584C25.5196 24.7101 25.5371 24.6492 25.5855 24.6225L25.659 24.5819C25.7073 24.5552 25.7682 24.5727 25.7949 24.621L26.414 25.7413C26.4407 25.7897 26.4232 25.8505 26.3749 25.8772L26.2461 25.9484C26.2283 25.9582 26.2058 25.9518 26.196 25.9339C26.1781 25.9016 26.1194 25.9117 26.1047 25.9456C26.0955 25.967 26.0841 25.9881 26.0706 26.0088C26.0318 26.0683 25.9763 26.1181 25.9039 26.1581C25.8222 26.2032 25.736 26.2235 25.6451 26.2189C25.5541 26.2143 25.4679 26.185 25.3863 26.1311C25.3052 26.0753 25.2373 25.9979 25.1825 25.8987ZM25.9476 25.4804C25.9147 25.4209 25.875 25.3766 25.8284 25.3474C25.7812 25.3172 25.7317 25.3019 25.6797 25.3017C25.6271 25.3003 25.5781 25.3121 25.5326 25.3373C25.4871 25.3624 25.4512 25.3967 25.4249 25.4402C25.3987 25.4836 25.3852 25.5337 25.3846 25.5905C25.3845 25.6454 25.4005 25.702 25.4328 25.7603C25.465 25.8187 25.5051 25.8636 25.5529 25.895C25.6013 25.9247 25.6512 25.9405 25.7026 25.9426C25.7552 25.944 25.8036 25.9324 25.848 25.9079C25.8935 25.8828 25.9299 25.8481 25.9574 25.804C25.9841 25.7588 25.9976 25.7087 25.9977 25.6538C25.9972 25.5977 25.9805 25.5399 25.9476 25.4804Z" stroke="#0D0D0D" stroke-width="0.2" mask="url(#path-3-outside-2_27_4)"/>
<path d="M26.8203 24.4998C26.7355 24.4743 26.7232 24.3593 26.8007 24.3165L26.8656 24.2806C26.8892 24.2676 26.9171 24.2646 26.943 24.2725L27.4077 24.4132C27.4596 24.4289 27.4895 24.4831 27.4752 24.5353L27.3471 25.0037C27.34 25.0297 27.3226 25.0518 27.299 25.0649L27.2341 25.1007C27.1566 25.1436 27.0658 25.072 27.0893 24.9866L27.1668 24.7059C27.1812 24.6536 27.1512 24.5992 27.0992 24.5836L26.8203 24.4998Z" stroke="#0D0D0D" stroke-width="0.2" mask="url(#path-3-outside-2_27_4)"/>
<path d="M27.8744 24.1276C27.8301 24.1521 27.7859 24.159 27.7419 24.1483C27.6984 24.1357 27.6654 24.1091 27.6428 24.0682C27.6202 24.0274 27.6155 23.9858 27.6287 23.9435C27.6424 23.8993 27.6714 23.865 27.7158 23.8405C27.759 23.8166 27.8023 23.811 27.8458 23.8235C27.8886 23.8349 27.9213 23.861 27.9439 23.9018C27.9665 23.9427 27.9715 23.9848 27.959 24.0283C27.9458 24.0706 27.9176 24.1037 27.8744 24.1276ZM28.1519 24.5592C28.2143 24.5247 28.2918 24.5648 28.2997 24.6357L28.3433 25.0298C28.3475 25.0673 28.3286 25.1037 28.2956 25.1219C28.2429 25.151 28.1769 25.1236 28.1604 25.0657L28.0564 24.7005C28.0436 24.6558 28.0634 24.6081 28.1042 24.5856L28.1519 24.5592Z" stroke="#0D0D0D" stroke-width="0.2" mask="url(#path-3-outside-2_27_4)"/>
<path d="M28.2276 23.6262C28.1775 23.6539 28.113 23.6342 28.0982 23.579C28.0758 23.4953 28.0795 23.4156 28.1091 23.3398C28.1506 23.233 28.2339 23.1452 28.3587 23.0761C28.4439 23.0291 28.5252 23.0039 28.6027 23.0007C28.6795 22.9964 28.7472 23.0115 28.806 23.0461C28.8652 23.0788 28.9126 23.1273 28.948 23.1915C28.9887 23.265 29.0039 23.3381 28.9938 23.4107C28.9844 23.48 28.959 23.5377 28.9178 23.5838C28.9162 23.5856 28.9159 23.5881 28.917 23.5902C28.9182 23.5923 28.9206 23.5934 28.9229 23.5929C29.0007 23.5776 29.0725 23.5862 29.1384 23.6187C29.2066 23.6511 29.2639 23.7093 29.3103 23.7933C29.349 23.8633 29.3672 23.9348 29.3648 24.0077C29.3637 24.08 29.3403 24.1493 29.2946 24.2156C29.2496 24.2801 29.1833 24.3366 29.0957 24.3849C28.9639 24.4578 28.8381 24.4839 28.7185 24.4632C28.6284 24.4475 28.5505 24.4018 28.485 24.3258C28.448 24.2829 28.4659 24.2189 28.5154 24.1915L28.5787 24.1565C28.6257 24.1306 28.683 24.1494 28.7258 24.1817C28.7471 24.1978 28.7709 24.2094 28.797 24.2164C28.853 24.2296 28.9131 24.2185 28.9773 24.183C29.0368 24.1501 29.0733 24.1087 29.0868 24.0586C29.1007 24.0067 29.0932 23.9545 29.0642 23.9019C29.0255 23.8319 28.9756 23.794 28.9145 23.7882C28.8533 23.7823 28.7761 23.8052 28.6828 23.8568C28.6547 23.8723 28.6194 23.8621 28.6039 23.8341L28.5488 23.7343C28.5333 23.7063 28.5435 23.671 28.5715 23.6555C28.7372 23.5639 28.7894 23.4627 28.7282 23.3518C28.7004 23.3017 28.6637 23.271 28.6178 23.2597C28.5732 23.2478 28.5229 23.2574 28.4668 23.2883C28.412 23.3186 28.3778 23.3573 28.3642 23.4045C28.3592 23.4217 28.3567 23.4392 28.3566 23.4569C28.3563 23.5082 28.3412 23.5634 28.2964 23.5882L28.2276 23.6262Z" stroke="#0D0D0D" stroke-width="0.2" mask="url(#path-3-outside-2_27_4)"/>
</svg>
