<svg width="108" height="74" viewBox="0 0 108 74" fill="none" xmlns="http://www.w3.org/2000/svg">
<path d="M23.9838 36.6699L28.6865 48.7466C29.2018 50.0698 29.9421 50.9513 30.9075 51.3909C31.8655 51.812 32.9689 51.7794 34.2176 51.2931C35.4849 50.7996 36.3291 50.0738 36.7501 49.1158C37.1639 48.139 37.1131 46.9891 36.5979 45.6659L31.8951 33.5892L35.8368 32.0543L40.5287 44.103C41.1746 45.7616 41.3591 47.3102 41.0822 48.7488C40.8167 50.1614 40.1907 51.3924 39.2043 52.4419C38.2366 53.4841 37.0165 54.2919 35.5442 54.8652C34.0905 55.4313 32.6548 55.6577 31.2371 55.5444C29.838 55.4239 28.5723 54.9295 27.4401 54.0611C26.3005 53.1742 25.4078 51.9014 24.7619 50.2427L20.07 38.194L23.9838 36.6699ZM62.6554 26.2468L64.1575 43.4976L59.9362 45.1414L52.8999 35.4222L54.2893 47.3403L50.0401 48.995L39.4525 35.2823L43.4222 33.7364L50.7557 44.4667L49.125 31.5157L53.2624 29.9046L60.7528 40.5416L58.9094 27.7056L62.6554 26.2468ZM67.0632 19.8944L71.766 31.9711C72.2812 33.2943 73.0216 34.1757 73.9869 34.6154C74.945 35.0364 76.0484 35.0038 77.297 34.5176C78.5643 34.0241 79.4085 33.2983 79.8295 32.3402C80.2433 31.3635 80.1926 30.2135 79.6773 28.8903L74.9745 16.8137L78.9162 15.2787L83.6081 27.3274C84.254 28.9861 84.4385 30.5347 84.1616 31.9732C83.8961 33.3858 83.2702 34.6169 82.2838 35.6664C81.316 36.7086 80.0959 37.5163 78.6236 38.0897C77.17 38.6558 75.7343 38.8822 74.3165 38.7689C72.9174 38.6484 71.6518 38.1539 70.5195 37.2856C69.38 36.3986 68.4873 35.1258 67.8414 33.4671L63.1495 21.4184L67.0632 19.8944Z" fill="#F4788C"/>
<rect y="36.2868" width="100" height="40" rx="10" transform="rotate(-21.2764 0 36.2868)" fill="#F4788C" fill-opacity="0.278431"/>
<path d="M20.8531 31.6947L20.8472 31.6856L20.8409 31.6767L19.7909 30.2014C19.7909 30.2013 19.7908 30.2012 19.7907 30.2011C18.7242 28.699 17.7857 27.2364 16.9744 25.8133C16.2074 24.468 15.9839 23.1466 16.2687 21.8277L16.2687 21.8275C16.4984 20.7615 17.0368 19.9724 17.8862 19.4242C18.7356 18.8759 19.6764 18.7104 20.7422 18.9401C21.3401 19.0689 21.8724 19.3157 22.3448 19.6812C22.8226 20.0508 23.1976 20.494 23.4743 21.0134L23.7522 21.5353L24.2206 21.1745C24.6866 20.8156 25.2109 20.5663 25.7986 20.4263C26.3797 20.2879 26.9665 20.282 27.5645 20.4104C28.6303 20.6401 29.4193 21.1784 29.9675 22.0278C30.5157 22.8773 30.6812 23.8181 30.4515 24.884C30.1671 26.2036 29.4206 27.32 28.1716 28.2381C26.8535 29.2069 25.3879 30.1532 23.7738 31.0764L23.7737 31.0764L23.7705 31.0783L22.2287 31.9755L22.2187 31.9813L22.209 31.9876C22.1028 32.0562 21.9921 32.096 21.872 32.1105C21.7256 32.1282 21.5947 32.1219 21.4764 32.0964C21.3587 32.071 21.2372 32.023 21.1109 31.9464C21.0073 31.8837 20.9223 31.8015 20.8531 31.6947Z" fill="#EA4967" stroke="#0D0D0D"/>
<path d="M25.4792 33.1978L25.4759 33.1886L25.4722 33.1795L24.9706 31.9583C24.9706 31.9582 24.9706 31.9582 24.9706 31.9581C24.4626 30.7172 24.0393 29.5269 23.7 28.387C23.3838 27.3244 23.4462 26.3796 23.8584 25.5252L23.8584 25.5251C24.19 24.8371 24.687 24.3931 25.3613 24.1634C26.0361 23.9336 26.7129 23.9784 27.4177 24.3181C27.8125 24.5084 28.1414 24.7679 28.4095 25.0982C28.6813 25.4332 28.8689 25.8 28.9759 26.2016L29.1108 26.7076L29.5907 26.4982C29.9715 26.332 30.3753 26.2503 30.8067 26.2542C31.2322 26.2581 31.6403 26.3536 32.0352 26.5436C32.7399 26.8833 33.1966 27.3848 33.4372 28.0557C33.6776 28.7262 33.64 29.3916 33.3084 30.0796C32.8962 30.9347 32.1961 31.5755 31.1693 31.9964C30.0709 32.4467 28.8709 32.8556 27.5684 33.2227L27.5684 33.2227L27.5651 33.2237L26.3158 33.5859L26.3058 33.5888L26.296 33.5921C26.2209 33.6177 26.1477 33.6251 26.0715 33.6158C25.972 33.6037 25.888 33.5786 25.8161 33.544C25.7447 33.5095 25.673 33.4596 25.6013 33.3892C25.5465 33.3353 25.5064 33.2731 25.4792 33.1978Z" fill="#EA4967" stroke="#0D0D0D" stroke-width="0.9"/>
</svg>
