<svg width="188" height="205" viewBox="0 0 188 205" fill="none" xmlns="http://www.w3.org/2000/svg">
<mask id="mask0_12_2" style="mask-type:alpha" maskUnits="userSpaceOnUse" x="0" y="0" width="188" height="205">
<path fill-rule="evenodd" clip-rule="evenodd" d="M155.558 0.0608752C157.193 0.238431 158.766 0.77695 160.161 1.63641C161.556 2.49587 162.737 3.65418 163.615 5.02525C198.647 59.709 193.359 117.76 164.097 154.324C149.482 172.573 128.956 185.308 105.013 189.074C84.1257 192.344 61.3003 188.686 38.2997 176.814C36.1868 183.387 34.687 189.765 33.8222 195.776C33.4015 198.6 31.8632 201.144 29.544 202.853C27.2248 204.561 24.3136 205.295 21.4473 204.892C18.5811 204.49 15.9932 202.984 14.2501 200.706C12.507 198.427 11.7505 195.56 12.1462 192.733C13.667 182.718 16.2426 172.888 19.8314 163.4C3.00512 145.161 -1.59281 122.087 0.45436 101.474C2.70954 78.7355 13.23 56.9246 26.9253 45.6684C45.2294 30.635 64.4532 24.4619 81.1371 21.4401C88.4284 20.1961 95.7697 19.2564 103.141 18.6233C108.385 18.1053 113.739 17.76 118.862 16.5081C126.446 14.7004 133.694 11.7286 140.341 7.7017C145.18 4.72307 149.307 -0.629821 155.558 0.0608752ZM46.5212 156.676C58.6948 132.21 78.5973 108.759 104.51 95.9813C105.807 95.3545 106.966 94.4808 107.919 93.4105C108.873 92.3402 109.601 91.0944 110.064 89.7451C110.527 88.3957 110.714 86.9694 110.614 85.5485C110.515 84.1275 110.131 82.74 109.486 81.4659C108.84 80.1918 107.944 79.0564 106.851 78.125C105.758 77.1936 104.489 76.4848 103.116 76.0394C101.744 75.5939 100.296 75.4207 98.8553 75.5296C97.4147 75.6386 96.0102 76.0276 94.7229 76.6742C66.1719 90.7471 44.2989 115.083 30.0782 141.038C32.9047 145.579 36.411 149.672 40.4782 153.18C42.5072 154.424 44.5142 155.59 46.5212 156.676Z" fill="#93FF90"/>
</mask>
<g mask="url(#mask0_12_2)">
<rect width="188" height="205" fill="#F4788C"/>
<path d="M60.1764 122.133C59.3304 121.942 58.5058 121.574 57.7026 121.028C56.8995 120.482 56.2434 119.75 55.7344 118.833L50.8386 110.833C45.8276 102.625 41.4246 94.6089 37.6294 86.7854C33.8342 78.9619 32.765 71.0387 34.4217 63.0158C35.7734 56.4598 38.8058 51.4136 43.5189 47.8774C48.2321 44.3411 53.4289 43.2128 59.1096 44.4924C62.3124 45.2139 65.1724 46.6786 67.6895 48.8862C70.2065 51.0939 72.1815 53.7838 73.6143 56.9559C76.1694 54.6851 79.0287 53.0857 82.1923 52.1577C85.3558 51.2296 88.5394 51.125 91.7428 51.8437C97.4234 53.1234 101.714 56.389 104.616 61.6405C107.517 66.8921 108.292 72.7959 106.94 79.3519C105.286 87.3726 101.201 94.1521 94.6838 99.6905C88.1666 105.229 80.9473 110.646 73.0258 115.941L65.5244 121.038C64.7015 121.656 63.8165 122.04 62.8696 122.192C61.9226 122.343 61.0249 122.324 60.1764 122.133Z" fill="#EA4967"/>
<path d="M0 103.17C0 93.2143 8.97939 85.6666 18.7865 87.3784C21.2289 87.8048 23.539 88.7918 25.5354 90.2619L26.4121 90.9075C33.6198 96.2153 43.4256 96.2778 50.7004 91.0624L57.3677 86.2824C67.128 79.2851 80.5853 80.7266 88.6421 89.6325L96.5227 98.3435C102.457 104.903 112.911 104.385 118.168 97.2717C122.139 91.8978 129.354 90.0788 135.399 92.9275L138.202 94.2489C145.224 97.5582 153.581 95.9293 158.846 90.2252L159.646 89.3579C162.74 86.0057 167.094 84.0992 171.656 84.0992C180.683 84.0992 188 91.4165 188 100.443V171C188 198.614 165.614 221 138 221H50C22.3858 221 0 198.614 0 171V103.17Z" fill="#F9B3BD"/>
</g>
</svg>
